<?xml version="1.0" encoding="UTF-8"?>
<svg data-name="Layer 1" xmlns="http://www.w3.org/2000/svg" xmlns:xlink="http://www.w3.org/1999/xlink" viewBox="0 0 1007.55 1020.57">
  <defs>
    <style>
      .cls-1 {
        fill: none;
      }

      .cls-2 {
        fill: #00a651;
      }

      .cls-3 {
        fill: #ed1c24;
      }

      .cls-4 {
        fill: url(#New_Pattern_Swatch_1);
      }

      .cls-5 {
        fill: #fff200;
      }
    </style>
    <pattern id="New_Pattern_Swatch_1" x="0" y="0" width="15.06" height="15.06" patternTransform="translate(-58.32 1705.26) scale(1.68 1.6)" patternUnits="userSpaceOnUse" viewBox="0 0 15.06 15.06">
      <g>
        <rect class="cls-1" y="0" width="15.06" height="15.06"/>
        <rect y="0" width="7.53" height="7.53"/>
        <rect class="cls-2" x="7.53" y="0" width="7.53" height="7.53"/>
        <rect class="cls-5" x="7.53" y="7.53" width="7.53" height="7.53"/>
        <rect class="cls-3" y="7.53" width="7.53" height="7.53"/>
      </g>
    </pattern>
  </defs>
  <rect x="403.9" y="110.82" width="5.67" height="5.67"/>
  <path class="cls-4" d="M613.78,79.46v1.77s4.42,0,4.42,0v4.42s13.25,0,13.25,0v4.42s8.84-.01,8.84-.01v4.43s4.42,0,4.42,0v4.43s4.42,0,4.42,0v4.43s4.42-.01,4.42-.01v4.42s13.25,0,13.25,0v4.42s8.84-.01,8.84-.01v4.43s4.42,0,4.42,0v4.43s4.42,0,4.42,0v4.43s4.42,0,4.42,0v4.43s8.84-.01,8.84-.01v4.43s4.42,0,4.42,0v4.43s4.42,0,4.42,0v4.43s4.42,0,4.42,0v4.43s4.42,0,4.42,0v8.85s4.42,0,4.42,0v8.85s4.41,0,4.41,0v13.26h4.42s0,4.42,0,4.42h8.84s0,4.42,0,4.42h4.43s-.01,4.42-.01,4.42h4.42s0,13.25,0,13.25h4.42v17.67h4.42v17.67h4.42v26.51h4.42v13.26l-4.43.51v8.33s4.43,0,4.43,0v22.09h-4.42v38.88h-4.42v97.21h-4.42v13.26h-4.42s.01,8.84.01,8.84h-4.43s0,4.42,0,4.42h-8.84v-26.52h4.42s.01-8.33.01-8.33l-4.44-.5v-8.85s4.42,0,4.42,0v-44.19h-4.42s.01-8.84.01-8.84h-4.43s.01-8.84.01-8.84h-4.43s.01-8.84.01-8.84h-4.42s0-34.46,0-34.46h-4.42v-13.26h-4.42s.01-4.42.01-4.42h-4.43s0-3.9,0-3.9l4.44-.51v-8.85s4.41,0,4.41,0v-13.26h-4.42s.01-4.42.01-4.42h-4.43s0-4.42,0-4.42h-4.43s0-4.41,0-4.41h-13.25v-4.42s-8.84.01-8.84.01v-4.43s-4.42,0-4.42,0v-4.43s-4.42,0-4.42,0v-4.43s-4.41,0-4.41,0v-17.67h-4.42s.01-8.84.01-8.84h-4.43s0-4.42,0-4.42h-4.43s0-4.41,0-4.41h-30.92v-4.42s-8.84.01-8.84.01v-4.43s-4.42,0-4.42,0v-4.43s-4.42,0-4.42,0v-4.43s-4.42,0-4.42,0v4.43s-4.42-.01-4.42-.01v4.42s-30.92,0-30.92,0v-4.42h-44.18v4.42s-3.91.01-3.91.01l-.51-4.43h-13.25v4.42h-30.04v-4.42h-30.92v4.42h-13.25v4.42h-13.25v4.42h-44.18v4.42s-8.84-.01-8.84-.01v4.43s-8.84-.01-8.84-.01v4.43s-4.42,0-4.42,0v4.43s-4.42,0-4.42,0v4.43s-4.42,0-4.42,0v8.85s4.43,0,4.43,0v8.85s-4.43,0-4.43,0v4.43s-8.84-.01-8.84-.01v4.43s-4.42,0-4.42,0v4.43s-4.42,0-4.42,0v8.85s-4.41,0-4.41,0v13.26h-4.42v13.26h-4.42v114h4.42s0,4.42,0,4.42h44.18v4.42h22.09v4.42s8.84-.01,8.84-.01v4.42s13.25,0,13.25,0v4.42h13.25v4.42s8.84-.01,8.84-.01v4.43s8.84-.01,8.84-.01v4.42s13.25,0,13.25,0v4.42s8.84-.01,8.84-.01v4.43s4.42,0,4.42,0v4.43s4.42,0,4.42,0v4.43s4.41,0,4.41,0v13.26h4.42v17.67h4.42s0,8.84,0,8.84h-4.43s0,4.42,0,4.42h-4.43s0-4.43,0-4.43h-4.43s0-4.42,0-4.42h-4.43s0-4.42,0-4.42h-8.84s0-4.42,0-4.42h-3.91s-.51,4.43-.51,4.43h-4.43s0-4.43,0-4.43h-8.84s0-4.42,0-4.42h-4.43s0-4.42,0-4.42h-13.26v4.43s-4.42,0-4.42,0v4.43s-4.42,0-4.42,0v4.43s-4.42,0-4.42,0v4.43s-8.84,0-8.84,0v-4.43s-8.84.01-8.84.01v-4.43s-4.42,0-4.42,0v-4.43s-4.42,0-4.42,0v-4.43s-4.42,0-4.42,0v4.43s-8.83,0-8.83,0v13.26h8.84s0,4.42,0,4.42h22.09v4.42s4.42,0,4.42,0v13.26h-8.84s0,4.42,0,4.42h-22.09v-4.42s-8.84.01-8.84.01v-4.43s-4.42,0-4.42,0v-4.43s-4.42,0-4.42,0v-4.43s-4.42,0-4.42,0v-4.43s-8.83,0-8.83,0v-17.67h-4.42s0-4.42,0-4.42h-8.84s0-4.41,0-4.41h-13.25v-4.42h-13.25v4.42s-4.42,0-4.42,0v39.77h4.42v22.09h4.42v17.67h4.42v13.26h4.42v13.26h4.42s-.01,4.42-.01,4.42h4.43s-.01,13.26-.01,13.26h4.43s0,4.42,0,4.42h4.43s-.01,8.84-.01,8.84h4.42s0,13.25,0,13.25h4.42s-.01,8.84-.01,8.84h4.43s-.01,8.84-.01,8.84h4.43s-.01,8.84-.01,8.84h4.43s-.01,8.84-.01,8.84h4.43s-.01,8.84-.01,8.84h4.43s-.01,8.84-.01,8.84h4.43s0,4.42,0,4.42h4.43s-.01,8.84-.01,8.84h4.43s-.01,8.84-.01,8.84h4.42s0,26.51,0,26.51h4.42s-.01,4.42-.01,4.42h4.43s0,4.42,0,4.42h4.43s-.01,4.42-.01,4.42h4.42s0,17.67,0,17.67h4.42v17.67h4.42s-.01,8.84-.01,8.84h4.43s0,4.42,0,4.42h4.43s-.01,8.84-.01,8.84h4.43s0,4.42,0,4.42h4.43s0,4.42,0,4.42h4.43s0,4.42,0,4.42h4.43s0,4.42,0,4.42h4.43s0,4.42,0,4.42h4.43s0,4.42,0,4.42h4.43s0,4.42,0,4.42h8.84s0,4.42,0,4.42h4.43s0,4.42,0,4.42h4.43s0,4.41,0,4.41h17.67v4.42h47.71v-4.42h13.25v-4.42s8.84.01,8.84.01v-4.43s8.84.01,8.84.01v-4.43s4.42,0,4.42,0v-4.43s8.84.01,8.84.01v-4.43s4.42,0,4.42,0v-4.43s8.84.01,8.84.01v-4.43s4.42,0,4.42,0v8.85s-4.43,0-4.43,0v4.43s-4.42,0-4.42,0v4.43s-4.42,0-4.42,0v4.43s-4.42,0-4.42,0v8.85s-4.42,0-4.42,0v4.43s-4.42,0-4.42,0v4.43s-4.42,0-4.42,0v4.43s-4.42,0-4.42,0v4.43s-4.42,0-4.42,0v4.43s-4.42,0-4.42,0v4.43s-4.42,0-4.42,0v4.43s-4.42,0-4.42,0v4.43s-4.42,0-4.42,0v4.43s-4.42,0-4.42,0v4.43s-4.42,0-4.42,0v4.43s-4.42,0-4.42,0v4.43s-4.42-.01-4.42-.01v3.55s-4.42-.01-4.42-.01v4.43s-8.84-.01-8.84-.01v4.43s-3.54-.01-3.54-.01v4.43s-4.42,0-4.42,0v4.43s-8.84-.01-8.84-.01v4.43s-8.84-.01-8.84-.01v4.42s-13.25,0-13.25,0v4.42h-35.34v4.42h-22.09v-4.42h-13.25v-4.42h-13.25v-4.42s-4.42.01-4.42.01v-4.43s-8.84.01-8.84.01v-4.43s-8.84.01-8.84.01v-4.42s-17.67,0-17.67,0v-4.42s-4.42.01-4.42.01v-4.43s-8.84.01-8.84.01v-3.54s-35.34,0-35.34,0v-4.42s-8.84,0-8.84,0v-4.43s4.43,0,4.43,0v-4.43s4.42,0,4.42,0v-4.43s4.42,0,4.42,0v-4.43s8.84.01,8.84.01v-4.43s4.42,0,4.42,0v-4.43s4.42,0,4.42,0v-4.43s8.84.01,8.84.01v-4.43s4.42,0,4.42,0v-4.43s4.42,0,4.42,0v-4.43s4.42,0,4.42,0v-4.43s4.42,0,4.42,0v-8.85s4.42,0,4.42,0v-4.43s4.41,0,4.41,0v-13.26h4.42v-17.67h4.42v-53.02h-4.42s.01-4.42.01-4.42h-4.43s0-4.42,0-4.42h-4.43s.01-8.84.01-8.84h-4.43s0-4.42,0-4.42h-4.43s.01-8.84.01-8.84h-4.43s0-4.42,0-4.42h-4.43s.01-8.84.01-8.84h-4.43s.01-8.84.01-8.84h-4.43s.01-8.84.01-8.84h-4.42s0-13.25,0-13.25h-4.42v-13.26h-4.42v-22.09h-4.42v-30.93h-4.42v-26.51h-4.42s.01-4.42.01-4.42h-4.43s0-4.42,0-4.42h-4.43s0-4.42,0-4.42h-4.43s0-4.42,0-4.42h-4.43s0-4.42,0-4.42h-4.43s.01-8.84.01-8.84h-4.42s0-53.02,0-53.02h-4.42v-26.51h-4.42v-48.61h-4.42v-13.26h-4.42v-13.26h4.42s-.01-4.42-.01-4.42h4.43s-.01-4.42-.01-4.42h4.42s0-43.3,0-43.3h-4.42v-66.28h4.42v-35.35h4.42s-.01-8.84-.01-8.84h4.43s-.01-8.84-.01-8.84h4.43s-.01-8.84-.01-8.84h4.42s0-17.67,0-17.67h4.42s-.01-8.84-.01-8.84h4.43s-.01-8.84-.01-8.84h4.43s0-4.42,0-4.42h4.43s-.01-8.84-.01-8.84h4.43s0-4.42,0-4.42h4.43s-.01-8.84-.01-8.84h4.43s0-4.42,0-4.42h4.43s0-4.42,0-4.42h4.43s0-4.42,0-4.42h4.43s0-4.42,0-4.42h4.43s0-4.42,0-4.42h4.43s0-4.42,0-4.42h4.43s0-4.42,0-4.42h4.43s0-4.42,0-4.42h4.43s0-4.42,0-4.42h8.84s0-4.42,0-4.42h4.43s0-4.42,0-4.42h4.43s0-4.42,0-4.42h4.43s0-4.42,0-4.42h8.84s0-4.42,0-4.42h4.43s0-4.42,0-4.42h8.84s0-4.42,0-4.42h8.84s0-4.42,0-4.42l4.42-1.76h215.59ZM331.92,455.93h22.09v-8.84s-8.84,0-8.84,0l-.5-4.44h-8.33s0,4.44,0,4.44h-4.43s0,8.83,0,8.83ZM582.86,482.45c-4.39.2-8.86-.15-13.26,0v4.43s-8.84-.01-8.84-.01v4.43s-4.42,0-4.42,0v-4.43s-4.42,0-4.42,0v-4.43s-4.42,0-4.42,0v-4.43s-4.42,0-4.42,0v-8.85h4.43s0-4.42,0-4.42h4.43s0-4.42,0-4.42h4.43s0-4.42,0-4.42h13.26s0-4.42,0-4.42h4.43s0-4.41,0-4.41h17.67v-4.42h13.25v-4.42h17.67v-4.42h22.09v-4.42h30.92v4.42h26.51v4.42s8.84,0,8.84,0v4.43s-4.43,0-4.43,0v4.42s-22.08,0-22.08,0v-4.42h-26.51v4.42h-13.25v4.42s-4.42,0-4.42,0v8.85s8.85,0,8.85,0v4.42s13.25,0,13.25,0v4.42h13.25v4.42s4.42-.01,4.42-.01v4.43s4.42,0,4.42,0v8.85h-4.43s0,4.42,0,4.42h-4.43s0,4.42,0,4.42h-4.43s0,4.42,0,4.42h-4.43s.01,8.84.01,8.84h-4.43s0,4.42,0,4.42h-4.43s0,4.42,0,4.42h-4.43s0,4.41,0,4.41h-17.67v4.42s-8.84,0-8.84,0v-8.85s4.43,0,4.43,0v-4.42s13.25,0,13.25,0v-4.42s4.42,0,4.42,0v-8.85s-4.43,0-4.43,0v-4.43s-4.42,0-4.42,0v-4.43s-4.42,0-4.42,0v4.43s-4.42,0-4.42,0v4.43s-4.42,0-4.42,0v4.43s-4.42,0-4.42,0l-.5,4.44h-17.17s0-4.44,0-4.44h-4.43s0-4.42,0-4.42h-4.43s0-4.42,0-4.42h-4.43s0-4.41,0-4.41h-13.25v-4.42s4.42,0,4.42,0c.04-1.47-.05-2.95,0-4.42,1.47-.07,2.96.06,4.42,0v-4.43s-4.43,0-4.43,0c-.04,1.47.05,2.95,0,4.42ZM627.04,464.77h-17.67v8.84h17.67v-8.84ZM429.12,706.64v4.42h-17.67v8.84s4.42,0,4.42,0v4.43s8.84-.01,8.84-.01v4.42s48.59,0,48.59,0v4.42h38.88v-4.42h48.6v-8.84s-4.42,0-4.42,0v-4.42s-83.05,0-83.05,0v-4.42h-17.67v-4.42h-26.51ZM407.03,737.57v13.26h4.42s0,8.84,0,8.84h8.84s0,4.42,0,4.42h4.43s0,4.42,0,4.42h4.43s0,4.42,0,4.42h8.84s0,4.42,0,4.42h4.43s0,4.41,0,4.41h17.67v4.42h26.51v-4.42h38.88v-4.42s8.85-.5,8.85-.5v-8.33s-8.86,0-8.86,0v4.42s-52.13,0-52.13,0v-4.42s-8.84.01-8.84.01v-4.43s-8.84.01-8.84.01v-4.43s-4.42,0-4.42,0v-4.43s-13.25.01-13.25.01v-4.43s-4.42,0-4.42,0v-4.43s-8.84.01-8.84.01v-4.43s-4.42.01-4.42.01v-4.42s-13.25,0-13.25,0ZM446.79,635.94v4.42s-4.42,0-4.42,0v8.85s4.43,0,4.43,0v4.43s4.42,0,4.42,0v4.43s4.42,0,4.42,0v4.43s8.84-.01,8.84-.01v4.43s4.42,0,4.42,0v4.43s8.84-.01,8.84-.01v4.43s8.84-.01,8.84-.01v4.42s12.37,0,12.37,0v-4.42s8.84.01,8.84.01v-4.43s4.42,0,4.42,0v-4.43s8.84.01,8.84.01v-4.43s8.84.01,8.84.01v-4.43s8.84,0,8.84,0v-8.85s-8.84,0-8.84,0v4.43s-8.84-.01-8.84-.01v4.43s-8.84-.01-8.84-.01v4.42s-16.78,0-16.78,0v-4.42s-4.42.01-4.42.01v-4.43s-4.42,0-4.42,0v-4.43s-4.42,0-4.42,0v-4.43s-4.42,0-4.42,0v-4.43s-4.42.01-4.42.01v-4.42s-26.5,0-26.5,0Z"/>
</svg>
