<?xml version="1.0" encoding="utf-8"?>
<!-- Generator: Adobe Illustrator 24.2.3, SVG Export Plug-In . SVG Version: 6.00 Build 0)  -->
<svg version="1.1" id="Layer_1" xmlns="http://www.w3.org/2000/svg" xmlns:xlink="http://www.w3.org/1999/xlink" x="0px" y="0px"
	 viewBox="0 0 50 50" style="enable-background:new 0 0 50 50;" xml:space="preserve">
<path d="M13.6,50l-1-0.5l3.5-5.3c-3.9-1.9-7.2-3.6-8.9-3.6c-0.5,0-0.8,0.3-0.8,0.7c0,2,3.7,4,5.9,4c0.5,0,0.9-0.1,1.3-0.3l0.1,0.1
	l-3.7,4.8c-2.5,0-6.8-2.6-6.8-5.3c0-0.6,0.2-1.1,0.5-1.6l6.1-8.4c0.3-0.4,0.7-0.6,1.1-0.6c1.8,0,5.3,1.6,9.4,3.5l2.2-3.4l-1.4-6
	l6.3-1.3l2.2-3.3l-3.8-1.6l5.1-6.7l3.2,1.3l3.9-6c-6.7,0-15.7-4.4-20.7-4.4c-1.6,0-2.7,1.1-2.7,2.4c0,4.2,4.6,5.7,4.6,10.4
	c0,4.1-3.7,7.8-8.4,8.7L11,27.4c0.8-0.5,1.8-1.7,1.8-3c0-3.5-4.9-6-4.9-10.1c0-0.4,0.1-0.8,0.4-1.1L20,0.6C20.4,0.1,21,0,22.2,0
	c5.2,0,14.1,3.6,18.6,3.6c1.4,0,2.3-0.1,3-0.3l0.3,0.1l-8.8,13.4l9.6,3.9V39L33.3,49.5c-0.3,0.3-0.7,0.4-1.3,0.4
	c-4.2,0-9.9-2.7-14.9-5.3L13.6,50z M37.4,26.4l-6.7-2.7l-2,3.2l1.6,6.3l-6.6,1.5L21.5,38c5.6,2.7,12,5.8,16,5.8L37.4,26.4z"/>
</svg>
