<svg xmlns="http://www.w3.org/2000/svg" viewBox="0 0 283.46 283.46"><path d="M258.11 117.29c-.1-.25-.12-.62.1-.76-.25-1.07-.04-2.11-.14-3.13-.44-.18-.71-.46-.48-1.04-.3-.12-.6-.23-.75-.29-.19-.26-.39-.49-.58-.71.84-3.68.35-7.65-1.81-11.46-2.37-4.18-6.25-7.34-10.2-10.26v-.25l-.3.03c-1-.74-2-1.46-2.98-2.18-.5-.84-1.28-1.49-2.1-2.13v-1c-.54-.18-1.08-.14-1.57-.35-.05-.14-.09-.27-.15-.44h-1.02c-.05-.18-.09-.31-.12-.43h-1.87c-.27-.16-.54-.25-.69-.44-.15-.18-.18-.47-.26-.7-.18-.02-.37-.03-.59-.05-.21-.7-.81-1.07-1.31-1.48-.23.01-.54.13-.75.02-.75-.36-1.63-.43-2.26-1.05-.01-.01-.05.01-.08.02l-.17.17c-.08-.07-.16-.15-.24-.22-.08.07-.16.15-.29.26-.04-.25-.08-.47-.12-.71-.28-.16-.56-.33-.89-.52h-1.34c-.05-.49-.47-.56-.77-.66-.48-.15-.42-.69-.84-.95h-1.13c-.53-.54-1.14-.77-1.79-.94-.2-.05-.4-.13-.59-.2-.12.44-.36-.04-.6.07-.35.17-.93.27-1.2.09-.46-.31-.9-.11-1.33-.19-.06-.01-.13.05-.2.08-.03.11-.06.21-.1.4-.27-.04-.56-.07-.84-.12-.23-.05-.47.05-.69-.12-.26-.19-.6-.28-.84-.5-.2-.17-.29-.46-.43-.69-.83-.02-1.57-.24-2.31-.35-.86-.13-1.77-.03-2.8-.03-.05.07-.18.25-.27.38h-2.63c-.39-.34-.75-.66-1.13-.99-.11.23-.19.39-.26.55-.6 0-1.25-.15-1.76.04-.58.21-1.08.22-1.6.02-.04.18-.06.28-.09.38-.91.14-1.88-.25-2.68.54h-.73c-.06.17-.1.3-.15.46-.28-.5-.49.11-.78-.01-.29-.12-.66-.05-.95-.06-.05-.19-.07-.3-.1-.4-.46-.03-.9-.09-1.27.12-.18-.09-.35-.17-.52-.26.09-.13.15-.2.32-.43-.57.1-.95.17-1.38.25-.28-.19-.8-.36-.91-.67-.23-.65-.98-.76-1.18-1.36-.55.06-.33-.65-.73-.72-.73-.13-1.14-.7-1.59-1.13h-1.97c-.06.17-.1.31-.15.43h-.46c-.59.26-1.12.33-1.28.6-.33.56-.95.09-1.22.48-.3.43-.76.25-1.11.33-.31.49-.59.93-.86 1.35h-1.08c-.26-.25-.43-.41-.66-.63 0-.07-.03-.25-.05-.43-.15-.05-.28-.1-.42-.15-.02-.28-.03-.54-.05-.83-1.44-.53-2.91-.12-4.31-.28-.26.43-.81.47-.94.99h-.53l-.64.93c-.08-.22-.13-.35-.2-.55-.21.29-.39.53-.62.85l-.72-.72c-.48-.09-.81-.19-1.14-.19-.29 0-.59.11-.88.17-.05.16-.1.29-.12.35-.5.08-.94.14-1.45.22-.15-.04-.39-.09-.64-.16a8.85 8.85 0 0 1-.61-.2c-.6.19-1.12.35-1.64.52-.02.09-.05.2-.11.41-.44-.22-.65.15-.94.39-.26.21-.71.15-.86.54-.17.43-.73.06-.89.48-.47-.36-.95-.27-1.36-.12-.59.34-1.02.84-1.7 1.04-1.05.32-2.12.19-3.18.22-.31 0-.73-.13-.91.03-.47.39-1.05 0-1.42.25-.53.36-1.05.15-1.56.18-.78.05-1.58-.1-2.33.06-.44.09-.88.28-1.29.13-.43-.15-.81.31-1.32-.1-.03-.04-.16-.18-.2-.23-.77-.14-1.42-.26-2.04-.37-.03-.16-.06-.27-.06-.31-.35.05-.75.24-.96.11-.68-.4-1.29-.21-1.89.04-.15-.11-.26-.2-.23-.18-.59.09-1.03.15-1.46.22-.08-.21-.13-.34-.17-.46-1.36-.16-2.71-.46-4.09-.24-.13.14-.27.27-.36.37h-1.29c-.04-.15-.07-.25-.11-.44-.26.05-.53.1-.83.15-.35-.18-.77-.4-1.19-.61-.95.52-2.29.21-2.96 1.41h-2.29c-.03 0-.06-.04-.13-.08-.1-.11-.23-.25-.4-.43h-.98c-.04-.15-.07-.25-.1-.39h-.91c-.07.11-.2.3-.24.35-.94.14-1.72.22-2.48.39-.91.21-1.59.15-2.53-.04-.47-.09-.95-.56-1.49-.16.07.1.14.19.23.33-.77.11-1.53-.16-2.13.44v.48c-.22.03-.44.06-.69.1-.11.14-.23.29-.33.43h-.99c-.38.29-.77.59-1.21.92h-1.31c-.95.8-2.06.35-3.09.48-.06-.17-.11-.3-.17-.46h-1.2c-.84.48-1.03 1.32-1.82 1.57-.2.06-.52.2-.54.33-.05.44-.44.49-.69.62-.34.18-.18.8-.72.75-.21.59-.92.77-1.14 1.4h-.83c-.4.44-.64.94-1.01 1.06-.54.17-.6.62-.84.96-.16.22-.11.59-.26.82-.17.25-.46.42-.68.64-.05.04-.05.13-.09.26-.57-.09-1.18.17-1.74-.23-.1-.07-.33-.07-.46 0-.76.4-1.58.16-2.36.23-.07 0-.14.04-.21.06-.05.14-.09.27-.14.4h-.47l-1.73 1.58c-.02-.01-.1-.09-.15-.14-.21.11-.4.21-.62.32.17.08.33.15.5.23-.03.12-.05.22-.08.36H89.3c-.23.46-.45.87-.69 1.35-.69.18-.9.95-1.34 1.42-.23.05-.41.08-.73.14.29.1.42.15.5.18-.07.26-.14.5-.23.82-.39.34-.85.75-1.5 1.33-.29.12-.85.34-1.41.56-.05-.15-.1-.29-.15-.44-.13.02-.23.04-.32.05-.06.17-.1.3-.15.43-.43-.05-.87.13-1.21-.22-.64.64-1.15-.19-1.69-.06-.05-.2-.08-.3-.1-.39h-.81c-.06.17-.11.3-.16.47h-.99c-.16.34-.29.63-.41.89-.23.01-.41.02-.5.03-.44.84-.82 1.57-1.21 2.33h-.43c-.04.34-.26.48-.56.57-.42.13-.13.57-.34.81h-.77c-.18.23-.39.5-.48.62-.44-.06-.71-.09-.95-.12-.04.21-.06.31-.09.44h-.38c-.37-.29-.61-.47-.84-.66-.3.32-.69.32-1.02.12-.27-.16-.45-.15-.73-.05-.67.25-1.15.66-1.44 1.34-.18.43-.5.8-.72 1.13h-1.5l-.42-.42h-.82c-.7.55-1.32.93-1.81 1.43-.55.56-1.02 1.2-1.48 1.84-.44.59-.83 1.22-1.27 1.87-.83-.25-1.37.72-2.18.43-.08.22-.12.36-.19.54-.7-.08-1.39-.16-2.12-.25-.15.12-.34.29-.59.51-.19-.45-.71-.12-.93-.51-.2-.35-.65-.42-.79-.71h-1.56v.9h-.45c-.88.35-.83 1.3-1.42 1.8v.84c-.48.98-1.14 1.77-1.41 2.8-.28-.18-.4-.42-.81-.59.16.38.24.55.38.88-.76-.4-1.38-.74-2.03-1.08-.07.19-.12.33-.18.51h-.7c-.61.5-1.15.96-1.71 1.42h-.91c-.14.2-.13.48-.49.52-.13.01-.19.38-.34.53-.18.17-.57.25-.61.43-.07.34-.32.35-.53.48v.6c-.27.23-.49.41-.68.57-.02-.06-.07-.19-.13-.38-.1.2-.17.36-.26.55H36.4c-.04.15-.07.25-.11.44h-1.53c-.04.19-.06.3-.08.4h-2.99v-.14c.47-.03.94-.06 1.41-.08-.5-.19-.99-.2-1.48-.19-.05 0-.1.09-.13.11-.04.14-.07.24-.12.38h-1.24c-.44.5-1.09.71-1.34 1.38h-.73l-.46.46h-.69l-.51.48h-1.97c-.34.29-.58.55-.87.73-.67.42-.58 1.27-1.07 1.78-.22-.09-.38-.15-.71-.28l.28.47c-.18.27-.36.53-.54.81l-.2-.2c-.38.17-.77.33-1.15.5-.03-.04-.05-.08-.08-.11-.25.32-.5.63-.76.96-.15 0-.33.02-.34.02-.57.95-1.05 1.77-1.57 2.65.19.88-.74 1.31-1.11 1.99-.46.84-.63 1.02-.41 1.93.1.42.13.92 0 1.32-.18.58-.54 1.1-.84 1.67.07.52 0 1.06.2 1.64.25.69.3 1.46.3 2.23 0 .48-.29.85-.27 1.31.02.43 0 .86 0 1.29s.14.93-.03 1.27c-.22.44.13.73.05 1.11-.1.49.05.96.45 1.35v5.23c0 .41 0 .8.2 1.2.15.29-.22.7.01 1.09.07.12-.02.37-.1.53-.17.33-.18.63 0 .96.17.32.19.63-.01.95-.07.12-.11.28-.1.42.17 1.89-.32 3.75-.24 5.63.01.35.02.7 0 1.05-.18 2.59.39 5.15.23 7.63.28.42.51.75.71 1.05q0 1.22.9 2.81c-.06.08-.12.16-.19.24.17.06.3.11.3.11.22.42.39.74.67 1.27v1.02h.58c.35.44.73.9 1.12 1.39.15.02.34.04.4.04.92 1.05 2.04 1.65 3.18 2.35h1.41c.06.18.11.31.15.44h2.83c.32.28.64.56 1.05.91h5.08c.18-.66.88-.9 1.14-1.43.25-.51.7-.85.94-1.39h.77c.02-.22.04-.41.06-.59.48-.2.94-.39 1.39-.58-.05-.62-.02-1.14.31-1.59.08-.11.15-.28.14-.41-.12-1.19.21-2.34.27-3.38.29-.43.45-.91.77-1.07.4-.2.6-.59.97-.76.8-.37 1.25-1.02 1.55-1.81.11-.3.25-.6.36-.88.39-.13.73-.25 1.07-.36.23.25.71.24.74.7h1.17c.3.27.54.71 1.03.38.03-.13.05-.24.08-.37 1.71-.05 3.41.05 5.06-.05.04-.19.07-.3.1-.44h1.01c.93-1.01 2.11-.98 3.31-.91.03-.14.06-.24.09-.4.58-.28 1.25-.5 1.75-1.01.15-.15.36-.26.56-.35.23-.1.48-.15.75-.23v-.8c.23-.02.42-.04.64-.07-.07-.7.64-1.01.76-1.68.1-.52.68-.95 1.07-1.4.41-.47.75-1.01 1.16-1.58h1.93l1.15-.97h.7c.03-.16.06-.27.09-.41h.83c.03-.14.05-.25.07-.36.42-.16.86-.33 1.29-.5 1.03-.32 1.89.46 2.89.42.02.45.16.56.45.35.03-.15.06-.26.08-.35.22-.03.4-.05.58-.07.11-.18.03-.46.4-.46.17 0 .35-.28.5-.46.15-.17.27-.37.33-.45h1.94c.61 0 1.22.02 1.77-.01.05-.22.08-.33.1-.43h1.96c.16.17.3.3.48.48h.5c.06.17.1.31.18.56.61-.37 1.27-.52 1.87-.3.3.11.57.16.86.16 1.21.01 2.42 0 3.63 0 .23 0 .48.03.68-.05.74-.28 1.53-.25 2.39-.51.06-.06.23-.22.41-.39 1.24.11 2.51-.14 3.78.16.08-.03.21-.1.35-.13.04-.01.11.08.16.11l-.2.23c.27.12.54.24.8.36s.53.23.73.32c.12.45.23.87.34 1.27.27.04.47.08.71.11-.12.14-.18.22-.27.32.16.06.29.11.47.17-.12.71.35.88.92.91.03.48.41.63.62.87h1.61c.33-.35.68-.72 1.1-1.16v-.69h1.45c.45.51.78 1.07 1.26 1.39.55.36.98.77 1.27 1.38h2.01c.02.14.02.26.07.35.22.46.86 1.17 1.38 1.64.5.46 1.04.92.95 1.7-.05.48-.19.95-.22 1.42-.04.54 0 1.09-.02 1.64 0 .1-.08.2-.13.3-.4.71-.47 1.53-.63 2.28q-.36.22-.9 1.55c-.27.17-.48.31-.7.45.1.11.18.19.22.24-.15.36-.35.68-.42 1.02-.16.83-.61 1.59-.51 2.5.05.41-.08.92-.32 1.25-.4.55-.35 1.13-.36 1.73 0 .82.02 1.64-.01 2.46-.01.32-.21.64-.21.96s.18.63.21.96c.12 1.42-.07 2.73-.63 4.3-.43 1.18-.59 2.42-.81 3.59-.16.12-.32.2-.41.33-.36.46-.53 1.02-.75 1.56-.22.53-.6 1-.8 1.54-.2.54-.65.88-.91 1.36-.08.16-.16.32-.24.47h-.48c-.48 1.25-1.71 1.82-2.41 2.63-.96.46-1.77.85-2.59 1.24-.56 1.17-1.01 2.44-1.81 3.58-.12.01-.31.04-.35.04-.36.36-.61.66-.91.91-.22.19-.47.38-.74.46-.46.13-1.01.06-1.4.28-.49.28-.96.14-1.44.21-.48.07-.95.23-1.42.22-.83-.02-1.65-.14-2.48-.21-.06 0-.13.05-.2.08-.03.11-.06.21-.08.32-.57.23-1.22.22-1.77.54-.64-.26-1.24.58-1.81.1-.59.67-1.3.93-2.1.83-.4.51-.78.98-1.16 1.46h-.56c-.05.16-.07.27-.11.36-.62 1.22-1.34 2.4-1.66 3.76-.09.38-.44.83-.32 1.1.37.87 0 1.75.21 2.6.05.06.14.1.16.17.19.67.53 1.3.49 2.01-.02.38.27.6.34.92.87.21.76.98.9 1.6.14.14.28.27.37.37v2.22c-.15.04-.25.07-.44.12v.69c-.36.33-.6.54-.92.83v.7c-.14.03-.25.05-.31.06-.19.37-.37.73-.58 1.15-.08.3-.23.69-.26 1.08-.02.39.5.77-.03 1.2.26.15.48.28.71.41v.47l-.45.48v1.2c.14.05.27.1.44.16l.03.77c.15.06.28.12.42.17.04.13.09.27.15.43h.85v1.29c.18.06.31.11.53.19-.12.29-.22.56-.31.78-.38.04-.66.07-1.01.11.55.44 1.13.41 1.73.4.11.34.19.61.28.89.2.04.42.07.67.12v.81c.63.18 1.1.72 1.64.54l1.34 1.37H84c.07.17.12.31.15.38.43.12.84.17 1.19.35.58.3 1.08.74 1.78.81.23.02.45.23.72.37h1.37c.18.72.99.2 1.32.67.08-.07.16-.14.15-.13.58.19 1.09.35 1.58.5.03.12.06.22.1.36h2.2c.04.15.07.25.12.44h.82c.08.22.12.35.17.48h2.05c.06.11.18.31.22.37.58.11 1.02.19 1.43.26.23-.07.48-.15.7-.22.21.2.38.36.54.51.72.02 1.43-.02 2.14.22.8.26 1.61.6 2.52.28.31-.11.72-.11 1.11.1.39.21.87.25 1.26-.12.36.39.82.47 1.33.46 1.21-.01 2.42 0 3.63-.01.26 0 .52-.04.77-.13.64-.23 1.27-.37 1.97-.35 1.17.04 2.34.01 3.52.01.16-.16.33-.31.5-.48h4.7c.05-.14.1-.27.16-.46.4 0 .82-.01 1.24 0 .41.02.83.1 1.24.1.37 0 .75-.1 1.3-.17.04-.08.13-.3.22-.48.84.24 1.59-.13 2.29.25.68-.31 1.4-.13 2.1-.16s1.4 0 2.11 0h6.77c.09-.15.21-.35.28-.47 1.22 0 2.31-.02 3.4 0 .36 0 .72.12 1.06.19.16-.06.33-.18.5-.19.86-.02 1.71 0 2.57 0 .03 0 .06.05.08.08.03.11.06.21.09.35h6.89l.15-.42h11.06c.07-.17.12-.31.18-.46h11.29l.44.44h3.04l.48-.45h3.78c.05.14.1.27.16.45h2.16c.07.17.12.31.19.48.27-.02.56-.04.89-.06v-.9h3.62c.06-.18.11-.31.16-.45h2.12c.34-.52.91-.11 1.38-.36.43-.23 1.05-.1 1.59-.11h3.83c.42-.43.93-.5 1.47-.47.35.02.7-.02 1.05 0 1.49.12 2.65-.55 3.48-1.33.23-.52.35-.78.44-.98h.88c.06.17.11.31.15.44.81-.22 1.56-.57 2.38-.46l.42.42h1.02c.06-.17.11-.3.15-.43h2.52c1.03-.59 2.07-.77 3.18-.7.14-.25.27-.47.39-.66.9-.14 1.52-.74 2.08-1.13.65-.1 1.16-.19 1.71-.27.41.41.99.07 1.49.21.22-.71.61-1.12 1.21-1.19.82-.1 1.64-.17 2.33-.24.42-.28.74-.47 1.03-.71.3-.24.55-.57.98-.27.52-.52 1.31.14 1.82-.41h2.09c.18-.17.34-.33.56-.53h1.43c.03-.15.06-.26.09-.41h1.73c.06-.17.11-.31.14-.37.45-.14.88-.27 1.43-.45.13-.02.26-.03.38-.06.23.04.45-.04.69-.16 1.76-.47 3.39-1.44 4.69-2.74.02 0 .04 0 .06.01.05.01.12-.07.19-.11v-.17c1.68-1.8 2.73-4.17 2.61-6.67-.16-3.65-2.07-6.83-4.97-8.58-.03-.1-.08-.18-.23-.14-.16-.09-.32-.16-.48-.24-.04-.1-.08-.2-.18-.24-.81-.36-1.56-.87-2.45-.68-.64-.49-1.26-.89-1.78-1.4-.53-.52-.96-1.15-1.41-1.71.28-.39.54-.75.79-1.11h.48c.16-.25.31-.49.5-.79 1.18.7 2.24.07 3.32-.22.03-.11.06-.21.08-.3.3-.11.61-.22.9-.33v-.85c.42-.33.94-.62 1.27-1.05.32-.41.44-.98.66-1.51-.27-.17-.51-.33-.72-.47l.36-1.7c-.19-.03-.4-.06-.59-.09-.03-.16-.06-.26-.08-.39-.3-.03-.6-.05-.91-.08.13-.41.24-.75.35-1.1.42-.05.61-.39.88-.69-.1-.32-.19-.61-.29-.91.3-.05.51-.09.75-.14-.11-.12-.18-.2-.31-.34h.92c.05.14.1.28.15.43.13-.02.23-.04.42-.07-.11-1.22-.21-2.42-.31-3.53l.5-.5c-.08-.08-.16-.17-.23-.24.53-1.73.53-3.49.42-5.29-.19.05-.3.07-.44.1v3.58c-.15.14-.26.24-.32.3-.45-.1-.84-.19-1.28-.29 0-.3-.13-.74.03-.96.27-.37-.25-.59-.04-.89.04-.06.09-.12.13-.18h.51c.04-.21.04-.45.13-.63.11-.22.31-.4.57-.74h-1.55v-.54c.22-.24.4-.43.65-.7h.45c.04-.25.07-.46.1-.62h.62c.02.23.04.42.06.55h.69c.11-.25.28-.57.41-.91.19-.5.79-.24 1.05-.58.16-.2.32-.41.41-.65.14-.35.23-.73.22-1.12v-2.01c.34-.13.64-.25.85-.33.24-.95.44-1.84.68-2.72.15-.53.55-.86.94-1.02.26-.33.28-.66.65-.88.28-.16.35-.68.51-1.04.04.01.07.03.11.04v-1.16c-.37-.29-.65-.52-.94-.75-.05-1.05-.23-1.34-1.17-1.85-.1-.41-.21-.84-.32-1.26-.13-.04-.27-.08-.43-.14v-1.81c-.14.12-.22.19-.3.27-.08-.07-.16-.14-.18-.16-.29.08-.53.14-.8.21-.15-.43-.28-.81-.41-1.19l-.54-.06c-.04-.29-.26-.37-.47-.52-.23-.15-.31-.51-.52-.7-.18-.15-.47-.18-.61-.23-.13-.33-.24-.6-.34-.84-.35-.02-.62-.03-.72-.04-.3-.35-.49-.64-.74-.84-.15-.12-.42-.1-.62-.15-.18-.97-1.21-1.25-1.57-2.05h-1.62l-.34-.34v-.71l.86-.86h.99c.01-.3.03-.57.04-.82.17-.06.3-.11.46-.16-.13-.59.25-.81.74-.99v-.54c.31-.02.57-.03.86-.05.27-1.36.95-2.52 1.57-3.75h.52c.06-.18.1-.31.15-.44h1.12c.23-.23.41-.42.65-.66-.09-.49-.2-1.06-.32-1.68h-1.22c-.15-.34-.29-.63-.42-.93-.4.06-.68-.05-.84-.43-.2-.46-.43-.9-.65-1.36.05-.06.12-.15.2-.23-.05-.09-.08-.18-.11-.27.48-.9.81-1.89.99-2.91.34-.2.7-.39.85-.69.34-.65 1.06-.8 1.44-1.36 1.13-.27 1.71-1.23 2.42-2 .41-.44.8-.95.21-1.51.3-.56.83-1.02.18-1.69.44-.3.37-.69.22-1.1 0-.02 0-.04-.01-.06.41-1.82.45-3.67.15-5.47.28-.54.53-1.03.76-1.48.14-.04.24-.06.34-.09.02-.29.03-.56.04-.78.69-.45 1.35-.85 1.97-1.29.16-.12.2-.4.35-.55.35-.34.15-1.11.88-1.14v-.08l-.17-.17c.52-.37 1.12-1.52.88-2.02-.34-.68-.1-1.35-.2-1.91.24-.43.34-.94.63-1.09.41-.22.34-.76.78-.83v-1.62c.1-.06.31-.17.46-.25 0-.32-.06-.58.01-.79.31-.88.36-1.73 0-2.62ZM136.6 206.74c-.13.8-.14 1.58-.19 2.34-.29.2-.56.38-.89.6h-1.59c-.04-.13-.09-.26-.16-.45-.24 0-.57-.1-.75.02-.48.31-.88.27-1.37.03-.21-.1-.54.05-.98.11-.04-.01-.23-.15-.44-.16-1.84-.09-3.68-.17-5.52-.24-.66-.02-1.33 0-1.99 0-.52 0-1.03.03-1.55-.21-.46-.2-1.01.07-1.55-.22-.36-.2-.92 0-1.38-.04-.59-.05-1.19-.11-1.77-.24-.23-.05-.41-.31-.64-.5-.13.1-.25.19-.4.3-.97-.12-1.98.02-3.02-.19-.94-.19-1.96-.11-3.11-.38-.04-.06-.19-.28-.34-.51-.37-.45 0-.97 0-1.5 0-.46.22-.92.34-1.37.24-.03.43-.05.61-.07.06-.15.11-.28.16-.42h1.15c.41-.49.86-.92 1.1-1.78 0-.24-.16-.82.04-1.23.23-.48 0-1.02.29-1.4.33-.43-.14-1.03.37-1.38.02-.01 0-.08 0-.11.09-.41-.5-.73-.07-1.25.24-.29.12-.85-.15-1.27-.11-.17-.02-.46-.02-.69v-3.51c0-.21.1-.41.13-.53-.05-.3-.21-.67-.11-.77.32-.31.17-.65.2-.98.07-.75 0-1.49.19-2.25.18-.7.15-1.46.49-2.14-.19-1.08.64-2 .52-2.79.24-.76.41-1.28.57-1.79.07.14.14.3.31.67-.04-.89.37-1.48.27-2.19-.03-.23.12-.49.23-.71.22-.47.58-.84.57-1.46-.01-.49.38-.99.59-1.49.12-.3.22-.61.36-.9.18-.39.56-.79.54-1.16-.03-.55.71-.65.53-1.22-.03-.1.21-.29.34-.43.18-.19.29-.39.37-.67.24-.82.52-1.62.46-2.25.73-1.86 1.48-3.48 2.76-4.98.16-.08.52-.26 1.11-.54.39.13 1.01.34 1.69.57v.68c.39.31.81.53 1.06.88.26.37.37.85.64 1.54v.8c.84.27 1.6.65 1.66 1.95.16-.44.2-.58.32-.92.18 1.12 1.11 1.73 1.04 2.78.56.57.6 1.4 1.04 2.02.51.73.65 1.6.99 2.4-.23.62.25 1.1.34 1.66.08.56.41 1.07.59 1.62.14.41.23.84.31 1.27.15.79.15 1.61.46 2.38.09.24.01.54.01.81v6.9c0 1.01-.09 2.04.46 2.97-.08.92.28 1.67.91 2.31.1.91.66 1.67.79 2.61.12.84.05 1.78.6 2.54.08.1.02.3.05.45.07.4-.12.81.19 1.21.23.3-.15.84.27 1.17.04.03.01.15.01.22 0 1.17.14 2.36-.05 3.5Zm68.54-23.91c-.36 1.03-.09 2.1-.17 3.15-.02.31 0 .62 0 .94.02.87-.13 1.7-.44 2.51-.05.14-.09.34-.02.45.25.38-.02.74-.01 1.1.01.42-.11.8-.2 1.2-.08.36-.19.81.13 1.22.13.17.06.51.08.79-.14.03-.25.05-.36.08q-.4 1.38-.13 3.13s-.03.06-.06.08c-.29.18.09.35.04.4-.46.51 0 1.16-.25 1.65-.22.42-.23.72 0 1.14.13.24.02.6.02.98-.1.07-.26.19-.34.25-.22 1.08-.4 2.05-.62 3.02-.05.24-.25.44-.4.69-.03 1.22-.19 1.66-.96 2.57.05.63-.02 1.29-.61 1.77-.11.64-.53 1.06-.97 1.44-.1.02-.21.03-.31.05-2.05.43-4.11.85-6.16 1.28-.85-.01-1.71-.03-2.55.02-1.58.1-3.13-.27-4.7-.25-.38 0-.66-.3-1.07-.26-.31.03-.69.17-1-.13-.05-.05-.3.15-.44.14-.59-.06-1.19.17-1.79-.19-.29-.17-.76-.03-1.15-.03h-1.85c-.08-.15-.19-.36-.3-.55-.38.11-.62.18-1.11.32h-6.98c-.97-.5-2.09-.36-3.33-.65-.14.04-.5.47-.87-.03-.34.36-.79.23-1.18.2-.39-.03-.78-.19-1.24-.3-.02-.05-.07-.19-.13-.36-.11.07-.22.14-.24.16-.55-.09-1.02-.17-1.52-.25-.02-.08-.04-.19-.08-.38-.52.07-1.06.2-1.59.21-.55.01-1.15.18-1.67-.25-.12.09-.24.18-.37.27-.7-.61-1.41.19-2.14 0-.29-.08-.73.07-.89-.09-.33-.35-.41.17-.68.11-.3-.06-.56-.25-.83-.25-.51 0-1.03-.13-1.56.17-.27.15-.78-.2-1.17-.17-.35.02-.68.32-1.07.2-.17-.05-.31-.18-.46-.27-.16.26-.29.47-.43.71h-1.46c-.2-.14-.47-.32-.8-.55 0 .01-.04-.05-.04-.12-.01-.19.07-.44-.02-.57-.56-.77-.44-1.65-.45-2.51 0-.37.06-.71.19-1.09.14-.42.57-.93.06-1.45-.12-.12-.03-.45-.01-.68.02-.35-.06-.65-.22-.96-.17-.32-.23-.69-.36-1.12-.03-.01-.16-.06-.3-.11-.29-1.62-.35-2.2-1.54-3.22-.28-.24-.5-.65-.58-1.02-.2-.95-.78-1.71-1.19-2.71.07-1.42-.8-2.95-.35-4.65-.29-.47-.19-1.07-.03-1.65.25-.91.25-1.87.04-2.73-.24-1.01-.13-1.98-.13-2.97 0-.94-.06-1.88.13-2.85.2-1 .31-2.12-.23-3.13-.07-.13-.17-.27-.15-.4.15-1.42-.3-2.81-.26-4.22l-.45-.45v-1.47c0-.23 0-.46-.05-.68-.22-.88-.2-.99.44-1.75.31-.36.33-.78.08-1.29.14-.68.54-1.07 1.22-1.25.69-.19 1.08-.8 1.58-1.26-.02-.34.08-.66-.22-.97-.39-.4-.13-1.01-.35-1.48-.23-.49-.16-.91.09-1.38.13-.25-.07-.73.09-.88.36-.33-.26-.42-.09-.68.08-.13.01-.36.01-.49.7-.41.91.64 1.54.35.08.26.17.49.21.73.03.15-.01.31-.04.73.35-.45.57-.68.72-.95.16-.28.24-.6.4-1l1.79.32c.03.1.08.23.14.38.41.13.88-.08 1.3.24.14.11.54-.12.92-.21.25.12.57.28.99.48h1.05l.42.42c.05-.02.1-.06.16-.07.89-.1 1.75-.42 2.66-.35.14.01.29.07.41.14.75.46 1.5.92 2.29 1.41.02-.01.15-.08.27-.15 0 0 1.24.2 1.34.21.09-.14.21-.33.36-.56.13.27.2.43.29.63.06-.18.11-.32.15-.44 1.62.31 3.28.35 4.92.84.39-.2.84-.44 1.33-.69.32.37.68-.05 1.05 0 .38.05.78.01 1.13.01.3-.21.57-.4.87-.62v-.39q.55-.57 1.12-.69c.07-.17.14-.33.23-.54-.04-.12-.11-.3-.16-.45.38-.42.73.22 1.13-.1.25-.2.7-.14 1.16-.21.07.1.22.28.3.39.49.08.83-.04 1.19-.18.33-.13.71-.12 1.07-.22.92-.25 1.84-.65 2.84-.5.47.07.94.17 1.37.25.46.51.62 1.14.97 1.63.33.47.91.77 1.38 1.14h.44l.38-.38c.47-.09.97-.34 1.29-.2.47.21.82.03 1.22-.01.08 0 .19.05.24.02.31-.2.6-.41.88-.61.4.19.75.36 1.13.55.07-.2.12-.33.19-.55l.81.81c.17-.13.28-.22.42-.32.74.15 1.17.76 1.69 1.25.16.88-.2 1.83.35 2.71h1.44c.2.4.38.75.56 1.12.94-.24 1.84-.28 2.72.08.26.72.94 1.08 1.37 1.61l.89-.46c.26.43.74.58 1.01.95.28.4.42.85.37 1.35.15.03.26.06.41.09v1.26c.17.06.3.1.51.17-.08.11-.14.2-.23.32.14.05.28.1.44.16v1.55c.17.33.32.6.46.87l-.19.19c1.01 1.05 1.26 1.68.93 2.34.28.15.14.7.63.63-.06.24-.21.5-.15.7.12.45.27.91.52 1.3.33.5.5 1 .33 1.66.24.02.42.04.64.06.33.37.25.9.34 1.36.09.47-.1.99.25 1.42.21.27-.4.48-.06.77Zm41.25 4.01c.13-.04.26-.09.48-.16-.15-.48.18-.96.05-1.52h.59c.11.36.23.77.33 1.11-.26.36-.45.62-.69.96-.2-.01-.48-.03-.76-.04v-.34Zm-15.73-.64c-.22 1-.24 1.66 0 2.76.07.33-.06.71-.12 1.25.32.86.36 3.52-.55 4.15.17.74-.09 1.46-.48 2.08-.31.49-.22 1.05-.52 1.55-.27.45-.29 1.05-.39 1.58-.07.39-.57 1.71-.79 2.13-.13.25-.15.57-.23.93-.81.38-1.16 1.34-1.94 1.9h-.47c-.03.1-.02.23-.09.3-.23.25-.27.62-.68.77-.43.16-.53.72-.97.98-.36.22-.55.7-.85 1.03-.26.28-.4.65-.8.84-.24.11-.38.43-.64.75h-.93v1.06c-.33.15-.62.28-.91.41-.2.43-.4.85-.6 1.27-.19.1-.37.28-.57.29-1.01.09-2.03.14-3.03.21-.38-.78-.38-1.54-.15-2.39.16-.59.41-1.2.33-1.87-.04-.34.07-.75.23-1.06.22-.43.22-.86.22-1.36.2-.13.41-.27.7-.45-.31-1.08.59-2.06.47-3.27.15-.12.33-.26.5-.39-.23-1.21.55-2.22.45-3.39.22-.13.44-.27.66-.4-.13-.16-.18-.28.02-.5.12-.13.02-.45.02-.71.55-.26.59-.86.67-1.33.14-.84.33-1.67.77-2.37.26-.43.09-.82.18-1.07.28-.42.49-.72.72-1.06v-.78c-.01-.43.2-.7.51-.98.39-.35.52-.86.54-1.39 0-.06-.07-.12-.15-.25.41-.44.63-1.01.76-1.63.12-.6.36-1.17.6-1.89l.75-.75c0-.07 0-.18.04-.28.31-.85.57-1.72.95-2.53.2-.41.39-.76.04-1.12-.27-.28.37-.51-.02-.74-.01-.8-.35-1.44-.94-1.86-.07-.37-.12-.65-.2-1.07-.24-.15-.62-.4-.9-.57-.13-.43-.31-.78-.32-1.13 0-.35.17-.7.27-1.08 1.5-.45 3.06-.64 4.77-.51.29.34.7.73 1.01 1.19.33.49.44 1.07.5 1.67.06.57.18 1.19.47 1.66.62 1.02.72 2.1.67 3.23-.01.32-.17.63-.28.99.17.06.3.11.44.15.29.82.28 1.71.53 2.56.24.81-.08 1.65-.26 2.45Z"/></svg>
