<svg xmlns="http://www.w3.org/2000/svg" viewBox="0 0 283.46 283.46"><path d="M215.58 238.76c-.52-.34-1.12-.57-1.52-.23-.61.51-.9-.58-1.41-.12-.16.14-.41.23-.62.24-.17.01-.35-.12-.72-.27-.12.22-.28.52-.61 1.14-.29-.61-.45-.94-.59-1.23-1.24.77-2.41.47-3.51.46-1.16 0-2.37.29-3.51-.23-.26.21-.58.46-.95.76l-.41-.82c-1.07.82-2.5-.22-3.49.7-2.06-.91-7.99-1.19-10.04-.03-.25-.24-.51-.48-.85-.8-.39.11-.82.26-1.27.36-.28.06-.68.16-.84.03-.65-.57-1.39-.18-2.08-.29-.07-.01-.17.12-.18.13.09.32.18.61.33 1.12-.63-.5-1.26-.59-1.33-1.25-.53 0-1.01-.03-1.5 0-.45.03-.91-.13-1.38.23-.21.16-.78-.51-1.2-.15-.45.38-.79.27-1.27.1-.26-.09-.68-.02-1.02 0-.35.02-.71 0-1.09.14-.39.14-.97.21-1.26-.25-1.22.83-2.36-.33-3.57-.12-1.18.21-2.43 0-3.64.06-1.23.07-2.51-.36-3.49.25-.63-.11-1.06-.23-1.5-.26-.61-.04-1.22-.02-1.82 0-.6.01-1.33-.16-1.76.13-.52.34-1.13-.68-1.43.22-.45-.88-1.17-.02-1.78-.25-.7-.25-1.55-.12-2.33-.09-.81.03-1.61.14-2.3.21-.49-.09-.91-.16-1.31-.23-.12.35-.19.56-.27.79-2.19-.21-4.34-.88-6.42-.08l-.65-.65h-1.81c.05.07.11.14.16.21-.22.08-.44.15-.75.26.44.18.64.27.85.35-.02.06-.04.11-.06.17h-1.49c-.07-.13-.22-.43-.29-.55-.53.13-.86.2-1.16.28-.3-.28-.55-.52-.84-.79-.09.24-.16.46-.24.67-.6.31-1.19-.23-1.87.03-.58.23-1.33-.04-1.98.07-.68.11-1.2-.91-1.96-.16-.62.62-1.23-.55-1.77-.2-.71.46-1.28.4-1.82-.1-.77.53-1.58 1.15-2.31.74-.67-.38-1.26-.23-1.89-.3-1.16-.13-2.38.28-3.51-.36-.18-.1-.61-.11-.7 0-.45.59-.99.1-1.46.16-.48.06-.94-.08-1.47.13-.39.16-1 .21-1.54-.18-.28-.21-.88-.02-1.32.03-.95.12-1.9.27-2.9.42l-.58-.58c-.13.12-.26.23-.28.25-.4-.1-.73-.26-1.05-.24-.43.02-1.03.41-1.25.24-.52-.41-1.06-.29-1.55-.24-2.29.23-4.51-.48-6.78-.39-.17 0-.39 0-.49-.11-.52-.51-1.16-.12-1.72-.26-.61-.15-1.18-.4-1.86-.38-1.14.03-2.28-.11-3.43-.16-.08 0-.17.09-.25.14-.11.11-.23.21-.34.32-.38-.62-.77-1.24-1.09-1.75-.54.2-.92.34-1.12.41-1.07-.68-1.93-1.45-2.93-1.79-1.1-.37-1.95-.94-2.61-1.63.13-.74.24-1.35.31-1.72-.63-.52-1.07-.89-1.45-1.21-.14-.77-.32-1.45-.37-2.13-.06-.79-.01-1.58-.01-2.37v-2.13c.38-.51.7-1 1.08-1.43 1.49-1.73 3.6-2.36 5.64-3.12.74-.28 1.63-.33 2.2-.8.56-.46 1.15-.1 1.67-.44.46-.3.95-.58 1.57-.62.53-.04 1.05-.37 1.86-.69 1.17.23 2.65-.05 4.06-.45 1.11-.31 2.19-.64 3.42-.71.6-.48 1.24-.99 1.7-1.36.2-1 .37-1.78.46-2.25.95-.7 1.72-1.13 2.32-1.73 1.05-1.05 2.07-2.15 2.96-3.33.9-1.18 1.7-2.44 2.43-3.73 1.19-2.09 1.81-4.42 2.14-6.76.23-1.62.71-3.28.41-4.95-.17-.94.51-1.83.11-2.76.59-.89.11-1.88.27-2.81.16-.98.47-1.93.38-2.95-.07-.84-.23-1.79.07-2.52.22-.54.19-1.02.28-1.52.11-.56.34-1.12.34-1.67 0-.75.22-1.37.75-1.95-.22-1.56.82-2.96.75-4.57-.08-1.64-.02-3.28-.02-4.72-.69-1.74-1.88-2.36-3.54-2.2-.52.05-1.01.04-1.51-.32-.33-.23-.87.06-1.32-.34-.47-.41-.93.34-1.45.29-.34-.03-.66-.16-.99-.23-.28-.06-.57-.11-.9-.17-1.03-1.03-1.74-2.08-1.95-3.15-.56-2.76-.8-3.31-2.61-5.62-.98-1.24-1.44-2.72-2.14-3.67-1.15-.54-2.01-.94-2.66-1.25-.44-1.07-.79-1.89-1.17-2.82-.85.54-1.66.81-2.29.16-.54.17-.91.29-1.41.46-.15-.21-.37-.38-.42-.6-.53-2.09-1.03-4.19-1.34-5.48-.93-2.25-2.66-2.59-3.53-3.95-.8-1.25-1.47-2.56-2.09-3.82-.76-.21-1.41-.38-2.34-.63-.13.29-.29.63-.39.85-3.24.14-4.55-1.29-4.94-4.42-.13-1.03-1.02-1.36-1.35-2.15h-1.4c-.27-.4-.52-.77-.78-1.16-.64.32-1.19.6-1.72.86-.84-.19-1.53-.57-1.94-1.21-.57-.92-.59-2-.53-2.85-1.08-1.45-2.05-2.76-3.04-4.09-1.54.18-3 .35-4.25.5-.54-.33-.87-.55-1.23-.73-1.54-.78-1.53-.78-2.43-2.4-.25-.45-.6-.85-.88-1.28-.77-1.19-1.71-2.28-2.2-3.65-.04-.1-.17-.17-.27-.28-.63-.18-1.28-.36-1.89-.52l-.59.59v.77c-2.1 2.12-4.93 1.87-7.43 2.41-1.25-1.37-2.91-1.64-4.2-2.44-.2-.82-.38-1.59-.59-2.43-.27-.15-.57-.3-.72-.38-1.66-2.74-2.58-5.58-2.83-8.64-.93-.59-1.97-1.04-2.97-.71-.58.19-1.2.08-1.68.33-.63.33-1.24.29-1.87.34-.27.02-.53.19-.8.26-1.04.28-2.02.66-3.01 1.1-.68.3-1.49.65-2.37.47-1-.2-1.95.24-2.88.52-1.46.45-2.83.88-4.38.23-.66-.27-1.49-.08-2.17.42-.62.45-1.31.41-1.97.01-.44-.27-.88-.53-1.45-.87h-1.24c-.12-.12-.2-.21-.29-.29-.79-.71-1.52-1.47-2.39-2.12-.79-.59-1.26-1.63-1.85-2.43 0-.42.03-.78 0-1.15-.17-1.65.39-3.35-.35-4.96-.07-.15-.04-.37.02-.53.71-1.92 1.5-3.85 2.86-5.37 1.93-2.14 3.99-4.17 6.27-5.96.69-.54 1.36-1.1 2.07-1.6 1.03-.73 2.11-1.4 3.12-2.15 2.01-1.48 3.93-3.09 6-4.48 1.37-.92 2.61-2.06 4.15-2.74.68-.3 1.31-.65 1.91-1.13.84-.67 1.82-1.15 2.76-1.72.3-.89.6-1.8.92-2.73.45-.45.85-1.16 1.42-1.35 1.32-.44 2.06-1.53 2.86-2.19 1.08-.19 1.93-.42 2.79-.47.79-.05 1.42-.27 2.09-.71.94-.62 2-1.2 3.2-.48.14.08.34.07.51.08.55 0 1.14.13 1.63-.03.57-.19 1.02.64 1.55.06.41.49.97.36 1.48.32.51-.04.98.84 1.51.06 1.16.77 2.47.05 3.58.37.35.26.6.53.92.67 1.07.48 2.02 1.07 2.88 1.89.64.6 1.38 1.32 2.41 1.02.74.74 1.43 1.42 2.11 2.11.68.68 1.47 1.24 2.06 2.03.6.8 1.5 1.15 2.5.98.95-.17 1.88-.45 2.81-.67 1.42.1 2.63.83 3.6 1.77.99.96 1.71 2.2 2.56 3.33.68-.14 1.39.27 1.79-.24.47.08.86.15 1.24.22.57.11 1.12-.02 1.73.21.87.33 1.7.67 2.4 1.26.66.56 1.29 1.16 1.85 1.81.71.84 1.34 1.75 1.99 2.61 1.15-.26 2.02.23 2.91.79 1.48-1.06 2.95-.19 4.47-.07.18.18.39.4.61.61.22.21.45.4.6.53.22 1.3.95 2.02 2.08 2.1.73.05 1.46.05 2.19 0 .84-.06 1.62.07 2.11.41.54.83.95 1.44 1.26 1.93 1.18.44 2.21.82 3.11 1.15.92-.24 1.74-.46 2.77-.73.43-.43 1.03-1.03 1.51-1.52.92-.23 1.74-.83 2.49-.46 1.05.52 2.1.19 2.86.3 1.98-.61 3-2.06 4.16-3.14 1.55-.57 3.01-.86 4.29.31.74-.53 1.4-1 2.15-1.53.48-.13 1.21.3 1.67-.29.92.32 1.64 1.19 2.7 1 .88-.16 1.73-.51 2.5-.75.25-.55.46-1 .65-1.4h2.24l.67.67c1.06.11 2.07.12 2.98-.65.35-.3.96-.35 1.47-.38 1.14-.07 2.14.34 2.91 1.01.6-.11 1.1-.3 1.59-.28.99.05 1.97.22 2.95.34 1.92.24 3.77-.47 5.43-.4 1.04-.42 1.87-.76 2.6-1.06 1.02.64 2.34.1 3.14 1.08.07.09.35.01.53.01.3 0 .67.09.89-.04.71-.45 1.53-.41 2.28-.67 1.83-.64 3.78-.99 4.96-2.51 1.28-.21 2.44.27 3.51-.4.22-.14.74-.15.88 0 .57.62 1.26.21 1.67.31 1.47-.45 2.22-1.68 3.76-2.16h2.08c.26.31.61.73.88 1.06h1.55c1.05-1.38 2.76-1.63 4.06-2.53 1.8 0 2.1.06 3.56 1.13.32.24.64.23.96.35.68.26 1.31.66 2.09 1.07 1.37 0 2.89-.1 4.4.02 2.01.16 3.56-.77 5.08-1.85 1.06.03 2.25-.25 2.81 1.11.95.03 1.6-.57 2.24-1.11.59 0 1.26.21 1.66-.04 1.12-.7 2.13 0 3.19 0 1.28.01 2.04.76 2.77 1.52.84-.09 1.56-.07 2.33-.32.84-.27 1.82 0 2.76.23.8.19 1.52.63 2.25.72 1.13.15 1.36.96 1.87 1.63.18.24.4.45.62.69.92-.19 1.75.11 2.62.27 1.8.33 3.84 1.04 5.28 1.82.62.34.58.99 1.05 1.33.71.51 1.4 1.05 2.11 1.57.63.21 1.21.6 1.85.77 1.08.29 2 .79 2.85 1.51.69.58 1.53.98 2.32 1.43 1.65.93 3.57 1.44 4.65 3.17.24.61.68 1.2.77 1.83.12.8.47 1.39.97 1.99.44.51.74 1.14 1.07 1.65.31.22.71.36.84.63 1.03 2.09 1.76 4.26 1.53 6.58 1.29 1.69 1.41 3.75 2.18 5.57.8 1.88.86 3.93 1.11 5.93.04.3-.05.62.01.91.37 1.84.19 1.83.05 3.35-.1 1.16-.72 2.04-1.01 3.07-.27.96-.32 2.07-1.24 2.77.21.95-.44 1.64-.74 2.43-.2.52-.48 1.02-.72 1.53-.62 1.3-.3 2.69-.34 4.05 0 .16.28.33.28.32-.13.75-.32 1.26-.28 1.74.07.91-.09 1.79-.42 2.57-.5 1.19-.71 2.56-1.82 3.41v2.2c-.69.64-1.35 1.45-1.01 2.3.37.94.52 1.97 1.05 2.85.47.78.68 1.7 1.14 2.44.61.98.76 1.93.66 2.92-.24.41-.39.81-.66 1.08-1.68 1.62-1.88 3.54-1.06 5.59 1.03 2.57 2.57 5.76 5.24 7.85 1.6 1.25 3.05 2.69 4.66 4.12.08 1.15.22 2.31.23 3.48 0 .62-.31 1.23-.32 1.86-.04 1.29.07 2.59-.67 3.74-.06.09-.08.22-.08.33.1 1.73-.54 3.39-.4 5.14.13 1.51 0 3.04.04 4.56.01.64.22 1.29.17 1.92-.04.63.06 1.31.25 1.79.25.61.21 1.24.44 1.82.27.68.29 1.47.61 2.12.4.8.28 1.6.35 2.42.07.75.29 1.48.34 2.22.06.85.01 1.7.01 2.26-.56 1.34-1.19 2.4-1.41 3.54-.21 1.06-.61 1.84-1.55 2.56-1.39-.28-2.83-.57-4.29-.87v.92c1.25.38 2.5.62 3.61 1.15 1.17.56 2.07 1.62 3.46 2.1.69.47 1.5 1.02 2.48 1.69.07.47.23 1.14.24 1.83.03 1.48-.59 2.91-.36 4.41.01.09-.13.19-.15.3-.23 1.3-.45 2.6-.65 3.82l2.63 1.93c.18 1.15-.85 1.85-1.07 2.84-.25 1.13-1.59 1.42-1.89 2.49.29.23.54.41.78.61.27.23.52.47.85.76-1.42 1.72-3.54 2.16-5.25 3.25-.09.06-.25-.02-.36.01-1.31.34-2.69.51-3.79 1.43-1.46.16-2.92-.07-4.41.33-1.21.33-2.59-.08-3.85.43-2.88-.29-5.71.57-8.57.35-.14.29-.25.53-.32.69-.61-.12-1.1-.23-1.6-.31-.45-.07-.99.18-1.32-.34-.34.46-.84.34-1.3.34-1.4 0-2.8-.03-4.2.01-.63.02-1.33-.28-1.87.34-.08.09-.43.09-.52 0-.75-.76-1.71.16-2.48-.35h-11.61c-.11.3-.18.51-.25.72-.53-.12-1.1-.12-1.5-.38Zm-60.74-80.29c-1.16.57-2.37 1.21-3.78.52-.59-.29-1.29-.36-1.96-.54-.18.68-.31 1.24.21 1.72-.59.46.14.87.07 1.36-.08.53.24 1.1.31 1.67.06.52-.06 1.07.38 1.49-.27 1.27.43 2.43.37 3.68-.04.91 0 1.82 0 2.74.83.56-.07 1.67.72 2.27.09.07 0 .35.01.53.13 2.81.9 6.82 1.86 9.63.27.8.56 1.59.91 2.36.34.77.82 1.49 1.13 2.27.21.52.67.98.49 1.63-.03.1 0 .25.05.34.42.68.96 1.31 1.26 2.04.3.73.13 1.76.6 2.28.83.93.76 2.15 1.36 3.11.2.33.34.74.36 1.12.05.91.02 1.82.02 2.71l-.48.48h-1.42c-.67.56-.75 1.57-.24 2.91.45.13 1.07.17 1.49.48.5.38 1.49.06 1.55 1.05.95.34 1.88.78 2.86 1.01 1.89.46 3.81.74 5.75.26.12-.03.26.04.39.06.87.14 1.73.37 2.58-.11.14-.08.33-.11.5-.12 2.32-.13 4.64-.23 6.96-.38 1.05-.07 2.09-.28 3.13-.34 1.03-.06 2.19.28 3.07-.09 1.01-.43 2.05-.08 3.05-.59.83-.42 1.97-.18 2.91-.46 1.07-.31 2.07-.87 3.31-1.41 1.37.22 2.35-.61 3.31-1.8.88-1.08 1.63-2.11 1.41-3.45.44-.72 1.76-2.24 2.62-2.63 1.3-.59 2.12-1.79 3.4-2.36.39-1.19 1.81-1.86 1.66-3.32.61-.97.76-2.14 1.24-3.13.32-.66 0-1.29.32-1.88.56-1.01.07-2.13.28-3.17.21-1.01.74-1.99-.02-2.99.12-1.78-.99-3.37-.75-5.17.09-.65.23-1.21.84-1.5.49-.23.14-.64.29-.93.74-1.45.99-2.87.4-4.5-.3-.83-.16-1.82-.36-2.76-.41-1.9-1.17-3.65-1.79-5.47-.72-2.13-2.31-3.76-3.04-5.86-.12-.36-.58-.6-.9-.91-.41.11-.86.36-1.28.32-.42-.04-.81-.37-1.07-.5-.84.08-1.58.15-2.34.23-.89-1.04-1.76-2.06-2.78-3.26-.35.66-.6 1.13-.87 1.63q-2.21.18-3.13-.22c-.7.7-1.38 1.38-2.2 2.21v.67c-.37.45-.67.81-1.07 1.29l-2.4-1.33c-.48.87-.71 2.06-2.27 2.16-.61-.48-1.41-1.12-2.21-1.76-1.22.51-2.51.51-3.57 0l-1.4 1.46c-.97 0-1.94-.06-2.9.02-.86.07-1.71.29-2.66.46-.36-.44-.7-.87-.83-1.04-1.22-.2-2.14-.36-3.26-.54-.54.73-1.15 1.56-1.92 2.59-.81-.12-1.9-.29-2.93-.44-.39.29-.7.54-1.04.77-.75.51-1.49.49-2.25 0-.77-.49-1.55-.97-2.44-1.52-.11 1.44-.8 2.42-1.87 2.95Zm55.66 39.8c-1.16.89-1.35 2.13-1.32 3.5 1.09 1.03 2.3 1.83 3.89 2.01.65.07 1.27.43 2.05.7-.1 0-.01.03.02 0 .41-.48.97-.36 1.49-.36h9.48c.09 0 .18.14.27.22.05.04.09.09.13.13.13-.12.26-.24.31-.28.76.1 1.44.25 2.12.28 2.82.14 5.66.2 8.48.41.73.05 1.47.28 2.21.38.67.09 1.33.35 2.04.32.79-.03 1.58 0 2.43 0 .42-.64.86-1.31 1.41-2.13.27-.12.82-.23 1.17-.56.33-.32.45-.86.67-1.31.12.24.23.46.45.92v-1.14c.26-.09.47-.16.62-.21.29-.54.52-1.06.84-1.52.81-1.13 1.59-2.25 1.55-3.74 0-.13.23-.26.34-.38-.13-.39-.3-.76-.36-1.14-.09-.62.22-1.21.03-1.9-.19-.67-.04-1.45-.04-2.18V186.09c.02-1.11-.31-2.15-.54-3.23-.52-2.41-1.9-4.47-2.38-6.86-.97-1.14-.99-2.82-2.18-3.84-.06-.05 0-.23 0-.36-1.22-.57-2.29-1.23-2.97-2.53-.54-1.04-1.69-1.67-2.79-1.97-.86-.23-1.57-.64-2.32-1.02-1.56-.8-3.18-1.32-4.96-1.23-.79.04-1.58.06-2.37 0-1.04-.09-2.14-.1-3.07-.49-.62-.25-1.17-.1-1.87-.28-.38.6-.8 1.21-1.18 1.85-.32.54-.6 1.09-.98 1.61-.53.71-.89 1.57-1.2 2.41-.49 1.32-.65 2.75-1.28 4.03-.6 1.22-.85 2.59-1.19 3.87-.35 1.3-.8 2.63-.87 4.04-.06 1.11-.31 2.31-.83 3.28-.39.72.23 1.62-.58 2.14-.12 1.1-.24 2.21-.37 3.31-.28 2.27-.88 4.45-1.84 6.53-.17.36-.6.59-.97.93h-3.54Zm-67 7.74c.34-.67.69-1.57 0-2.55.59-1.89 2-3.2 3.61-4.82.04-.46.14-1.29.72-2.02.27-.34-.15-1.06.39-1.45-.73-.4.25-.72.05-1.18-.2-.46-.14-1.03-.22-1.55-.07-.45-.15-.91-.26-1.35-.04-.16-.28-.3-.26-.43.24-1.77-.8-3.2-1.29-4.76-.92-2.96-2.12-5.81-3.47-8.59-.34-.71-.81-1.37-1.07-2.11-.33-.96-.55-1.97-.74-2.97-.53-2.67-.89-5.14-2.93-8.45-.74-1.21-1.58-2.36-2.43-3.62-1.34.92-1.73 2.6-3.27 3.19-.12.2-.3.49-.46.79-.7 1.29-1.23 2.65-1.87 3.97-.52 1.08-.69 2.26-1.07 3.39-.68 2.03-1.22 4.12-1.85 6.17-.42 1.34-1.1 2.58-1.48 3.95-.28.99-.48 1.99-.75 2.98-.43 1.6-.29 3.32-1.04 4.85-.05.1-.01.24 0 .36.15 2.64-.68 5.24-.35 7.87.21 1.71.49 3.41.34 5.14-.07.74.23 1.48-.3 2.26-.39.57-.01 1.42-.33 2.22-.32.79-.15 1.83-.46 2.73-.07.2-.2.37-.4.73.6-.15 1.07.12 1.6-.27.24-.18.72.55 1.14-.06.09-.13.64-.14.81 0 .66.52 1.53.45 2.05.21.72-.33 1.38-.28 2.07-.28 1.72-.01 3.4-.63 5.14-.38.76-.56 1.97-.15 2.51-.93.74-1.07 1.77-1.47 2.91-1.75.56-.14 1.13-.23 1.75-.35.3-.23.67-.5 1.22-.91Zm-23.1 5.04c.04-.18.08-.39.13-.64-.24-.05-.4-.08-.66-.13v.77h.53Z"/><path d="M189.69 239.26c-.18.11-.4.25-.77.48q.89.07.77-.48ZM243.43 238.49h-.61c0 .06-.02.12-.03.17.2.05.4.09.6.14.01-.11.02-.21.04-.32ZM215.35 238.75c-.1.08-.2.17-.3.25l.12.12c.08-.1.17-.2.25-.3l-.07-.07ZM205.77 239.89v-.36h-.12v.36h.12ZM115.27 239.89v-.36h-.12v.36h.12ZM113.45 239.89v-.36h-.12v.36h.12Z"/></svg>
