<svg data-name="Layer 1" xmlns="http://www.w3.org/2000/svg" viewBox="0 0 1007.55 1020.57"><defs><pattern id="New_Pattern_Swatch_1" x="0" y="0" width="15.06" height="15.06" patternTransform="matrix(1.68 0 0 1.6 -58.32 1705.26)" patternUnits="userSpaceOnUse"><path fill="none" d="M0 0h15.06v15.06H0z"/><path d="M0 0h7.53v7.53H0z"/><path fill="#00a651" d="M7.53 0h7.53v7.53H7.53z"/><path fill="#fff200" d="M7.53 7.53h7.53v7.53H7.53z"/><path fill="#ed1c24" d="M0 7.53h7.53v7.53H0z"/></pattern></defs><path d="M403.9 110.82h5.67v5.67h-5.67z"/><path d="M613.78 79.46v1.77h4.42v4.42h13.25v4.42l8.84-.01v4.43h4.42v4.43h4.42v4.43l4.42-.01v4.42h13.25v4.42l8.84-.01v4.43h4.42v4.43h4.42v4.43h4.42v4.43l8.84-.01v4.43h4.42v4.43h4.42v4.43H711v4.43h4.42v8.85h4.42v8.85h4.41v13.26h4.42v4.42h8.84v4.42h4.43l-.01 4.42h4.42v13.25h4.42v17.67h4.42v17.67h4.42v26.51h4.42v13.26l-4.43.51v8.33h4.43v22.09h-4.42v38.88h-4.42v97.21h-4.42v13.26h-4.42l.01 8.84h-4.43v4.42h-8.84V447.2h4.42l.01-8.33-4.44-.5v-8.85h4.42v-44.19h-4.42l.01-8.84h-4.43l.01-8.84h-4.43l.01-8.84h-4.42v-34.46h-4.42v-13.26h-4.42l.01-4.42h-4.43v-3.9l4.44-.51v-8.85h4.41v-13.26H711l.01-4.42h-4.43v-4.42h-4.43v-4.41H688.9v-4.42l-8.84.01v-4.43h-4.42v-4.43h-4.42v-4.43h-4.41v-17.67h-4.42l.01-8.84h-4.43v-4.42h-4.43v-4.41h-30.92v-4.42l-8.84.01v-4.43h-4.42v-4.43h-4.42v-4.43h-4.42v4.43l-4.42-.01V205h-30.92v-4.42H521V205l-3.91.01-.51-4.43h-13.25V205h-30.04v-4.42h-30.92V205h-13.25v4.42h-13.25v4.42h-44.18v4.42l-8.84-.01v4.43l-8.84-.01v4.43h-4.42v4.43h-4.42v4.43h-4.42v8.85h4.43v8.85h-4.43v4.43l-8.84-.01v4.43h-4.42v4.43h-4.42v8.85h-4.41v13.26h-4.42v13.26h-4.42v114h4.42v4.42h44.18v4.42h22.09v4.42l8.84-.01v4.42h13.25v4.42h13.25v4.42l8.84-.01v4.43l8.84-.01v4.42h13.25v4.42l8.84-.01v4.43h4.42v4.43h4.42v4.43h4.41v13.26h4.42v17.67h4.42v8.84h-4.43v4.42h-4.43v-4.43h-4.43v-4.42h-4.43v-4.42h-8.84v-4.42h-3.91l-.51 4.43h-4.43v-4.43h-8.84v-4.42h-4.43v-4.42h-13.26v4.43h-4.42v4.43h-4.42v4.43h-4.42v4.43h-8.84v-4.43l-8.84.01v-4.43h-4.42v-4.43h-4.42v-4.43h-4.42v4.43h-8.83v13.26h8.84v4.42h22.09v4.42h4.42v13.26h-8.84v4.42h-22.09v-4.42l-8.84.01v-4.43h-4.42v-4.43h-4.42v-4.43h-4.42v-4.43h-8.83v-17.67h-4.42v-4.42h-8.84v-4.41h-13.25v-4.42h-13.25v4.42h-4.42v39.77h4.42v22.09h4.42v17.67h4.42v13.26h4.42v13.26h4.42l-.01 4.42h4.43l-.01 13.26h4.43v4.42h4.43l-.01 8.84h4.42v13.25h4.42l-.01 8.84h4.43l-.01 8.84h4.43l-.01 8.84h4.43l-.01 8.84h4.43l-.01 8.84h4.43l-.01 8.84h4.43v4.42h4.43l-.01 8.84h4.43l-.01 8.84h4.42v26.51h4.42l-.01 4.42h4.43v4.42h4.43l-.01 4.42h4.42v17.67h4.42v17.67h4.42l-.01 8.84h4.43v4.42h4.43l-.01 8.84h4.43v4.42h4.43v4.42h4.43v4.42h4.43v4.42h4.43v4.42h4.43v4.42h4.43v4.42h8.84v4.42h4.43v4.42h4.43v4.41h17.67v4.42h47.71v-4.42h13.25v-4.42l8.84.01v-4.43l8.84.01v-4.43h4.42v-4.43l8.84.01v-4.43h4.42v-4.43l8.84.01v-4.43h4.42v8.85h-4.43v4.43h-4.42v4.43h-4.42v4.43h-4.42v8.85h-4.42v4.43h-4.42v4.43h-4.42v4.43h-4.42v4.43h-4.42v4.43h-4.42v4.43h-4.42v4.43h-4.42v4.43h-4.42v4.43h-4.42v4.43h-4.42v4.43h-4.42v4.43l-4.42-.01v3.55l-4.42-.01v4.43l-8.84-.01v4.43l-3.54-.01v4.43h-4.42v4.43l-8.84-.01v4.43l-8.84-.01v4.42h-13.25v4.42h-35.34v4.42h-22.09v-4.42h-13.25v-4.42h-13.25v-4.42l-4.42.01v-4.43l-8.84.01v-4.43l-8.84.01v-4.42h-17.67v-4.42l-4.42.01v-4.43l-8.84.01v-3.54h-35.34v-4.42h-8.84v-4.43h4.43v-4.43h4.42v-4.43h4.42v-4.43l8.84.01v-4.43h4.42v-4.43h4.42v-4.43l8.84.01v-4.43h4.42v-4.43h4.42v-4.43h4.42v-4.43h4.42v-8.85h4.42v-4.43h4.41v-13.26h4.42v-17.67h4.42v-53.02h-4.42l.01-4.42h-4.43v-4.42h-4.43l.01-8.84h-4.43v-4.42h-4.43l.01-8.84h-4.43v-4.42h-4.43l.01-8.84h-4.43l.01-8.84h-4.43l.01-8.84h-4.42V677.1h-4.42v-13.26h-4.42v-22.09h-4.42v-30.93h-4.42v-26.51h-4.42l.01-4.42h-4.43v-4.42h-4.43v-4.42h-4.43v-4.42h-4.43v-4.42h-4.43l.01-8.84h-4.42v-53.02h-4.42v-26.51h-4.42v-48.61h-4.42v-13.26h-4.42v-13.26h4.42l-.01-4.42h4.43l-.01-4.42h4.42v-43.3h-4.42v-66.28h4.42v-35.35h4.42l-.01-8.84h4.43l-.01-8.84h4.43l-.01-8.84h4.42v-17.67h4.42l-.01-8.84h4.43l-.01-8.84h4.43v-4.42h4.43l-.01-8.84h4.43v-4.42h4.43l-.01-8.84h4.43v-4.42h4.43v-4.42h4.43v-4.42h4.43v-4.42h4.43v-4.42h4.43v-4.42h4.43v-4.42h4.43v-4.42h4.43v-4.42h8.84v-4.42h4.43v-4.42h4.43v-4.42h4.43v-4.42h8.84v-4.42h4.43v-4.42h8.84v-4.42h8.84v-4.42l4.42-1.76h215.59zM331.92 455.93h22.09v-8.84h-8.84l-.5-4.44h-8.33v4.44h-4.43v8.83zm250.94 26.52c-4.39.2-8.86-.15-13.26 0v4.43l-8.84-.01v4.43h-4.42v-4.43h-4.42v-4.43h-4.42v-4.43h-4.42v-8.85h4.43v-4.42h4.43v-4.42h4.43v-4.42h13.26v-4.42h4.43v-4.41h17.67v-4.42h13.25v-4.42h17.67v-4.42h22.09v-4.42h30.92v4.42h26.51v4.42h8.84v4.43h-4.43v4.42H684.5v-4.42h-26.51v4.42h-13.25v4.42h-4.42v8.85h8.85v4.42h13.25v4.42h13.25v4.42l4.42-.01v4.43h4.42v8.85h-4.43v4.42h-4.43v4.42h-4.43v4.42h-4.43l.01 8.84h-4.43v4.42h-4.43v4.42h-4.43v4.41h-17.67v4.42H627v-8.85h4.43v-4.42h13.25v-4.42h4.42v-8.85h-4.43v-4.43h-4.42v-4.43h-4.42v4.43h-4.42v4.43h-4.42v4.43h-4.42l-.5 4.44H604.9v-4.44h-4.43v-4.42h-4.43v-4.42h-4.43v-4.41h-13.25v-4.42h4.42c.04-1.47-.05-2.95 0-4.42 1.47-.07 2.96.06 4.42 0v-4.43h-4.43c-.04 1.47.05 2.95 0 4.42zm44.18-17.68h-17.67v8.84h17.67v-8.84zM429.12 706.64v4.42h-17.67v8.84h4.42v4.43l8.84-.01v4.42h48.59v4.42h38.88v-4.42h48.6v-8.84h-4.42v-4.42h-83.05v-4.42h-17.67v-4.42h-26.51zm-22.09 30.93v13.26h4.42v8.84h8.84v4.42h4.43v4.42h4.43v4.42h8.84v4.42h4.43v4.41h17.67v4.42h26.51v-4.42h38.88v-4.42l8.85-.5v-8.33h-8.86v4.42h-52.13v-4.42l-8.84.01v-4.43l-8.84.01v-4.43h-4.42v-4.43l-13.25.01v-4.43h-4.42v-4.43l-8.84.01v-4.43l-4.42.01v-4.42h-13.25zm39.76-101.63v4.42h-4.42v8.85h4.43v4.43h4.42v4.43h4.42v4.43l8.84-.01v4.43h4.42v4.43l8.84-.01v4.43l8.84-.01v4.42h12.37v-4.42l8.84.01v-4.43h4.42v-4.43l8.84.01v-4.43l8.84.01v-4.43h8.84v-8.85h-8.84v4.43l-8.84-.01v4.43l-8.84-.01v4.42h-16.78v-4.42l-4.42.01v-4.43h-4.42v-4.43h-4.42v-4.43h-4.42v-4.43l-4.42.01v-4.42h-26.5z" fill="url(#New_Pattern_Swatch_1)"/></svg>