<svg xmlns="http://www.w3.org/2000/svg" viewBox="0 0 283.46 283.46"><g data-name="8Lz6cB"><path d="M202.52 100.07c.55-.02 1.12-.02 1.69-.02.22.22.43.62.67.64 1.87.21 2.85 1.9 4.42 2.62.48.22.69.97 1.1 1.4 2 2.15 4.04 4.24 7.09 4.84.28.05.56.22.78.4.95.79 2 1.5 2.76 2.44.7.86 1.5 1.63 2.16 2.51 1.19 1.57 2.22 3.26 3.39 4.84.69.93 1.32 1.83 1.36 3.06.01.37.33.74.51 1.11.33.69.51 1.52 1.02 2.02.61.61-.05 1.54.72 2 .17 1.99 1.08 3.89.76 5.94-.12.77-.22 1.54-.38 2.31-.4 1.9-.75 3.82-1.88 5.48-.33.48-.51 1.08-.88 1.52-.56.66-1.14 1.3-1.02 2.24.11.84-.34 1.74.28 2.54.1.12.11.36.08.53-.25 1.69.2 3.33.45 4.95.23 1.48.27 2.93.33 4.4.01.33.23.66.36.98.22.54.62 1.08.62 1.62 0 .86-.28 1.71-.42 2.57-.2 1.22-.94 2.14-1.55 3.16-.53.9-1.05 1.75-1.82 2.47-1.81.06-3.14 1.25-4.72 1.96-.27 1.11.27 1.99.68 2.97-.11.26-.38.6-.36.91.15 1.62-.16 3.2-.44 4.77-.15.85-.44 1.71-.66 2.55-.79 2.93-2.45 5.44-3.67 8.16-.31.69-.54 1.42-.94 2.5 0-.1.02.21 0 .53-.1 1.15.04 2.28-.31 3.47-.43 1.47.48 2.91.78 4.37.05.22.18.43.3.63 1.15 2 .68 4.2.75 6.32.02.53-.75 2.43-1.08 2.77-.77.81-1.76 1.19-2.92 1.46-.21.42-.47.93-.73 1.45l-.69-.69c-.63.22-.71.71-.61 1.32.2.07.42.15.73.26-.72.87-1.21 1.84-1.71 2.81-.56 1.08-.51 2.11-.56 3.17.34 1.08 1.41 1.19 2.19 1.42 1.82.54 3.49 1.32 5.18 2.18 1.15.59 2.21 1.18 3.12 2.07.2.2.52.26.77.41 1.27.75 2.72 1.33 3.75 2.33 1.23 1.2 2.15 2.74 3.1 4.19.23.36.14.98.09 1.47-.06.52-.25 1.03-.36 1.55-.11.52-.03 1.02-.29 1.59-.36.78-.29 1.78-.39 2.66-.19 1.75-.47 3.42-1.2 5.03-.12.26-.02.62-.02 1.03-.38.32-.81.68-1.14.95v.95c-.1.06-.2.18-.3.18-.97.03-1.97-.14-2.78.62-.46.43-1.12.15-1.72.45-.87.44-2.01.31-3.03.47-.59.09-1.16.25-1.74.37-.52.1-1.14-.24-1.57.33-.03.04-.11.06-.16.05-1.19-.24-2.29.32-3.45.38-2.79.15-5.57.57-8.38.38-2.06.68-4.19.31-6.29.37-2.15.06-4.3.01-6.45.01-1.33 0-2.66-.02-3.98.01-.34 0-.67.17-1.02.27-.53-.09-1.12-.26-1.7-.27-2.46-.03-4.93.02-7.4-.03-.71-.01-1.51.32-2.14-.31-.63.54-1.39.29-2.1.32-.69.03-1.39 0-2.09 0h-2.28c-.76 0-1.52.02-2.28 0-.4-.02-.8-.13-1.32-.22-.49.44-1.14.41-1.8-.11-.63.65-1.42.28-2.14.32-.71.03-1.5.26-2.11-.35-1.61.75-3.32.32-4.97.34-1.65.02-3.35.35-5.04-.3-.64.37-1.38.52-2.17.18-.21-.09-.44-.15-.66-.23-.53-.18-.97.45-1.61.05-.41-.26-1.11-.05-1.68-.05-.63 0-1.28.08-1.89-.02-.61-.11-1.11.42-1.8.07-.5-.25-1.24-.05-1.87-.05h-6.07c-.7 0-1.42.12-2.08-.02-3.54-.74-7.11-.2-10.66-.35-.65-.03-1.29-.46-1.98-.03-.11.07-.42-.16-.68-.27-.17.1-.41.24-.63.36-.21-.19-.34-.32-.48-.44-.14.13-.27.25-.34.31-.65-.11-1.23-.3-1.82-.31-2.09-.04-4.17.03-6.26-.04-.72-.02-1.38.32-2.17.07-.75-.23-1.64.05-2.45-.07-4.49-.68-9-.22-13.5-.37-.27 0-.54-.19-.84-.31-.08.07-.22.2-.27.24-.74-.11-1.38-.28-2.03-.29-2.15-.04-4.3 0-6.45-.02-.47 0-.97.17-1.42-.28-.15-.15-.67.01-.99.13-.61.23-1.18.33-1.68-.2-.13.12-.27.24-.45.41-.79-.37-1.64-.78-2.51-.13-.05.03-.11.08-.16.08-1.52-.28-3.05-.22-4.58-.11-.08 0-.18-.17-.12-.11-1.38.42-2.69.21-3.97.2-1.21 0-2.48.32-3.68-.37-.17.12-.36.25-.51.35-1.99-.66-4.03-.03-5.95-.4-1.36-.26-2.69-.18-4.02-.35-1.28-.16-2.51-.6-3.86-1.01.27-1.72-.98-3.25-.04-4.91-.17-.06-.39-.14-.61-.22-.33-1.31.29-2.72-.31-3.84.08-.91.13-1.68.23-2.45.1-.71.25-1.41.42-2.32 1.05-.89 2.22-1.9 3.41-2.89 1.15-.96 2.82-.92 4.04-2.08h1.64c.72-2.08 2.39-3.65 3.18-5.88.61-.76 1.37-1.65 2.04-2.59.38-.53 1.22-.54 1.33-1.31.68-.09 1.12-.57 1.36-1.11.5-1.18 1.53-2.14 1.53-3.53 0-.65.32-1.17.72-1.59.79-.85 1.29-1.83 1.77-2.88.38-.84 1.05-1.55 1.61-2.31.09-.12.37-.1.45-.23.43-.64.86-1.28 1.22-1.96.42-.79 1.28-1.21 1.51-2.2.19-.83.75-1.58 1.18-2.35.06-.11.32-.11.63-.2 0-.94-.03-2 .78-2.78.22-1.67 1.05-3.23.74-4.93.31-.11.53-.2.91-.34-.26-.28-.46-.48-.66-.69l-.08.08-.13-.13c.69-.4.14-1.16.49-1.68.26-.38.51-.81.61-1.26.1-.48.02-1.01.02-1.46.31-.62.6-1.19.91-1.81.16-.06.38-.13.62-.22-.44-.4-.62-.89-.24-1.31.41-.43.58-.87.68-1.44.1-.6.75-.89 1.08-1.41.85-1.36 1.4-2.88 1.8-4.37.34-1.26 1.16-2.34 1.26-3.67.02-.24.42-.45.71-.74v-1.52l.75-.75c-.12-.13-.23-.26-.42-.47.73-1.21.61-2.69 1.11-4.03.55-1.48-.72-2.84-.21-4.32-.34-.07-.51-.11-.77-.17.11-.23.21-.46.32-.69-.25-.89-1.1-1.1-1.74-1.51-.68-.44-1.43-.82-2.2-1.08-.64-.21-1.11-.6-1.35-1.14-.6-1.36-1.88-1.8-3.06-2.34-.79-.36-1.67-.54-2.47-.79-.38-.65-.64-1.38-1.14-1.83-.61-.55-.81-1.32-.87-1.91-.1-1.02-.59-1.81-1-2.64-.61-1.27-1.04-2.52-1-3.96.03-.96.14-1.91-.3-2.9-.35-.78-.08-1.76-.35-2.69-.24-.84-.33-1.9.24-2.88.3-.52.08-1.36.05-2.05-.07-1.35.19-2.63.67-3.9.17-.44.09-.98.12-1.43-.76-1.34-1.29-2.81-2.88-3.38-.66-1.37-1.77-2.42-2.18-4.04-.41-1.62-.48-3.22-.73-4.82-.18-1.16-.55-2.37-.25-3.44.44-1.55.19-3.07.33-4.54-1.56-1.65-2.38-3.54-2.26-5.75.04-.81.39-1.61.53-2.42.1-.58.33-1.34.08-1.75-.39-.63-.12-1.22-.3-1.95-.18-.14-.48-.38-.69-.54-.08-1.1.14-2.08-.36-3.03-.2-.39.19-.91.29-1.36.32-1.38.53-2.78 1.16-4.08.15-.31.02-.74.02-1.32-1.26-.43-2.59-.87-3.98-1.35-1.64-.98-3.37-2.01-5.09-3.04l.47-.51c-.41-.03-.7-.04-1.02-.06-.76-.54-.05-1.59-.92-2.23-.14-.03-.49-.09-.74-.14.14-.97.27-1.86.41-2.85.3-.66.99-1.17 1.41-1.91.37-.66 1.3-.96 1.12-1.9.44-.05.74-.09 1.13-.13-.12-.21-.22-.38-.35-.6.39-.28.79-.56 1.18-.85.85-.63 1.9-1.06 2.29-2.16.23-.66 1.06-.84 1.19-1.56.77 0 1.04-1.13 1.93-.83 1.19-1.18 2.93-1.17 4.34-2.12v-5.95c-.88-1.89-2.33-3.06-3.95-4.13-.83-.55-1.45-1.4-2.23-2.18-.36-.02-.78-.04-1.16-.07-.27-.43-.53-.83-.91-1.42v-.9c-.28-.32-.56-.63-.93-1.04.29-.33.56-.65.92-1.07v-.99c.45-.9 1.2-.47 1.49-.59 1.69-2.01 4.05-2.17 6.01-3.25.21-.98-.21-1.81-.96-2.51-.66-.62-.99-1.37-.89-2.42.69-.88 1.85-1.45 2.57-2.46.29-.4 1.09-1.28 1.21-1.62.08-.22.1-.62.21-.64.86-.15.74-1.2 1.44-1.5.54-.23 1.04-.54 1.57-.8.1-.05.25 0 .27 0 .96-.79 1.86-1.53 2.75-2.26 1.8-.19 3.48.3 5.12.92 1.03.39 2.05.72 3.27.54.18.29.39.61.58.9 1.34-.46 2.24.31 3.22.72.32.14.49.63.79 1.04h1.52c.31.38.66.82 1.01 1.26 3.45.65 5.62 3.05 8.21 5.56-.09-.01.2.02.55.06 1.26.56.85 2.32 2.06 3.07.19-.11.39-.23.62-.36.42.48.87 1.01 1.34 1.53.59.64 1.21 1.27 1.81 1.91.54.59 1.07 1.19 1.61 1.77-.26.03-.51.08-.39.06.04.17.1.47.16.76.06-.04.13-.08.19-.13.02-.22.03-.45.04-.69 1.04.36 1.44 1.41 1.81 2.19.56 1.17 1.44 1.95 2.3 2.92.02.23.05.53.08.82l.67.67c.16 1.79.45 3.52 1.32 5.14.42.78.64 1.64.65 2.58.03 2.79.59 5.57.35 8.37-.05.59.14 1.17-.29 1.79-.27.38-.25 1.17-.05 1.65.68 1.64.35 3.33.29 4.97-.04 1.07-.58 2.14-1.02 3.16-.8 1.86-1.78 3.61-3.17 5.15-.72.8-1.05 1.94-2.13 2.45-.28.96-.71 1.91-.78 2.88-.06.81-.22 1.64.25 2.53.36.69.07 1.73.07 2.4-.35.76-.61 1.34-.89 1.95.48.34.89.58 1.22.89 1.81 1.69 2.95 1.98 5.57 1.37.06-.01.13-.01.19 0 .64.12 1.28.28 1.93.37.6.09 1.23.07 1.83.18.81.15 1.61.38 2.41.59.16.05.3.21.51.36 1.48.08 3.12-.26 4.61.79.75-.35 1.59-.76 2.47-.11 2.57.01 5.14.02 7.72.04 1.31-.87 2.8-.73 4.25-.7 2.02.04 3.93-.47 5.83-1.03.76-.23 1.72-.12 2.75.32l.34-.72c.88-.33 1.89-.76 3.05-.88 1.05-.11 2.06-.73 3.09.02.72-.47 1.6-.3 2.32-.53.7-.23 1.34-.12 1.99-.19.55-.06 1.1-.02 1.55-.4.46-.39 1-.42 1.55-.37.49.04.98.18 1.47.18.54 0 1.1-.22 1.62-.16.77.09 1.41-.29 2.12-.41.71-.12 1.51.35 2.14-.34.06-.07.24-.04.36-.03 2.11.18 4.17-.65 6.29-.38.16.71.65.32 1.2.3-.13-.35-.24-.64-.42-1.09 1.09.19 2.19-.3 3.25.36.09-.08.22-.3.37-.31 1.84-.15 3.68-.26 5.51-.4.72-.05 1.44.17 2.14-.34.24-.18.83.02 1.22.16.85.3 1.65.3 2.56-.14.13.24.3.57.47.91.3-.3.38-.39.55-.56.16.29.33.59.68 1.19.31-.76.46-1.1.51-1.23 1.91 0 3.49-.05 5.06.02 1.12.05 2.23.59 3.28.65 1.54.1 2.67.9 3.93 1.37.05.24.09.41.13.6.24-.15.42-.27.7-.44.77 1 2.16 1.04 3.02 1.99 0 0-.03-.03-.05-.06-.1.09-.21.18-.31.26l.12.12c.09-.1.18-.21.24-.33zm-39.91 119.84c1.16-1.5 2.29-3.01 3.49-4.47.92-1.12 1.4-2.5 1.8-3.8.36-1.17.75-2.22 1.47-3.2.38-.51.71-1.11.87-1.72.41-1.57 1.22-2.92 2.09-4.26.48-.74.95-1.5 1.33-2.29.3-.63.43-1.34.69-1.99.74-1.9 1.69-3.72 2.29-5.69.6-1.96.93-4.01 1.96-5.82.05-.1 0-.25 0-.37.12-.96.31-1.91.36-2.88.06-1.07.07-2.15 0-3.22-.08-1.14-.21-2.3-.45-3.41-.26-1.2-.82-2.34-1.02-3.55-.31-1.83-1.28-3.28-2.31-4.88v-1.39c-.33-.85-.69-1.39-.73-1.95-.07-.96-.6-1.68-1.05-2.41-.38-.62-.73-1.17-.91-1.91-.32-1.3-1.13-1.82-2.49-1.86-.37-.01-.75 0-1.12 0-1.08.63-2.26 1-3.36 1.54-1.11.54-2.1 1.33-3.22 1.85-1.14.53-2.31.95-3.32 2-.66-.12-1.42-.25-2.18-.39-.24.1-.51.2-.78.31-.43.18-1.19.3-1.24.55-.16.96-1.05.9-1.51 1.35-.61 0-1.35.23-1.71-.04-1.07-.81-1.87-.02-2.62.35-1.34.67-2.54 1.17-4.07.48-1.26-.57-1.33-.5-2.7-.02-1.34.48-2.81.49-4.07 1.14-1.48.76-3.04.71-4.62.77-.83.03-1.75-.4-2.51.34-.13.12-.52.09-.73 0-.81-.33-1.6-.71-2.5-1.12-2.08.27-3.94-.78-5.94-1.58-1.44.86-2.98.76-4.58.34-.2-.21-.41-.44-.74-.78-1.02.3-2.1.61-3.28.95-.69-.75-1.38-1.5-2.32-2.51-1.24-.61-2.96.02-4.4-.23-.63-.33-1.1-.57-1.66-.85-.34.5-.68.92-.93 1.39-.27.52-.44 1.08-.77 1.94v1.73c-.32.27-.75.63-1.14.95 0 .4.12.8-.02 1.02-.7 1.11-.48 2.35-.31 3.45.45 2.94.49 3.66-.42 6.55-.44 1.4-.77 2.84-1.15 4.26-.4 1.51-.46 3.08-.72 4.62-.46 2.7.5 5.26 1.17 7.83.25.97.56 1.93.82 2.83-.52.52-.9.94-1.33 1.31-.38.33-.38.92-1.02 1.13-.28.09-.27.96-.45 1.46-.31.82-.32 1.79-1.07 2.28.14.72.1 1.46.43 1.96.45.68.19 1.33.25 1.99.09.96-.12 1.95.64 2.78.48.53-.06 1-.15 1.21.15.95.26 1.66.38 2.36.23 2.01 2.17 2.42 3.33 3.69 1.04-.42 2.01-.82 3.12-1.27 1.18-.1 2.5.02 3.87-.32 1.59-.39 3.29-.32 4.95-.44.25-.02.59.1.74-.02.9-.72 2.06-.56 2.86-.28 1.12.4 2.28-.06 3.25.38 1.12.52 2.21.22 3.3.27 3.07.13 6.12-.11 9.18.71 2.05.55 4.18.87 6.16 1.62 2.1.79 3.71.02 5.52-1.27 2.63.15 5.48.38 8.34.46 2.9.08 5.81.02 8.95.02zm12.88.78c1.43-.14 2.83-.3 4.23-.4 2.79-.19 5.59.32 8.37-.36 1.41-.35 2.75-.71 3.83-1.76.71-.69 1.24-1.46 1.6-2.37.69-1.76 2.08-3.1 2.73-4.94.95-2.69 2.17-5.28 3.05-8.02.95-2.93 1.28-5.95 1.65-8.97.13-1.06.01-2.14.02-3.22.01-1.34-.46-2.55-.87-3.75h-.67c-1.15.96-2.28 1.74-3.22 2.7-2.26 2.29-4.6 4.47-6.51 7.13-1.47 2.04-2.32 4.42-3.9 6.36-.1 1.59-1.28 2.74-1.71 4.22-.47 1.65-1.33 4.51-1.33 5.88v2.48c-.51.03-.94.05-1.72.1-.05.1-.21.45-.35.75-1.97-.18-3.76.04-5.45.85-.28.76-.56 1.52-.86 2.32.33.3.66.59 1.1.98zm-91.33-29.7c0 .09-.02.34 0 .58.22 1.88-.43 3.54-1.28 5.16-.38.72-.6 1.56-1.1 2.18-.61.76-.63 1.66-.87 2.49-.41 1.42-.77 2.89-.87 4.36-.06.93-.36 1.76-.51 2.65-.04.22-.3.43-.28.63.18 1.84-.44 3.72.34 5.54.13.29.08.85-.12 1.05-.47.49-.01 1.11-.37 1.57-1.17.23-1.9.89-2.07 1.69.18.93.3 1.51.42 2.12h1.2c1.08-.76 1.8-1.84 2.02-2.98.2-.97.67-1.76 1-2.63.27-.71.53-1.44.95-2.07.86-1.29 1.83-2.51 2.68-3.67v-.91c0-.69-.05-1.39.01-2.08.06-.71.2-1.42.38-2.11.16-.62.31-1.3.68-1.79.81-1.1 1.13-2.33 1.28-3.62.25-.09.47-.16.68-.24v-4.78c.01-1.96-.52-3.76-1.46-5.46-.11-.2-.15-.43-.21-.61h-.83c-.21.42-.41.84-.6 1.24.18.2.3.33.47.52-.48.37-.96.73-1.55 1.18zm16.18-143.28h-.13v.38h.13v-.38zm46.53 54.24h.13v-.38h-.13v.38z"/><path d="M94.17 40.23c.19.12.42.26.8.5q-.92.07-.8-.5zm74.15 56.75c.09-.1.18-.21.26-.31l.12.12c-.1.09-.21.18-.31.26l-.07-.07z"/></g></svg>