<svg xmlns="http://www.w3.org/2000/svg" viewBox="0 0 283.46 283.46"><path d="M34.01 196.5c1.42-1.71 3.45-2.93 5.71-4.31 2.37.2 4.76-.73 7.26-1.8-.15-.66-.31-1.33-.46-1.97-1.01-.33-1.51-1.23-2.28-1.84h-.81c-.08-.23-.09-.55-.26-.68-1.31-1.07-1.62-1.79-2.31-3.2-1.15-2.37-1.48-4.97-2.26-7.44-.43-1.38-.42-2.92-.47-4.39-.03-1.05-.37-1.96-.83-2.98.16-.64.92-1.38.08-2.18-.07-.07-.08-.24-.07-.36.09-2.29-.8-4.54-.36-6.81.23-1.22.07-2.54.75-3.67.09-.15 0-.39.01-.59.13-1.41.26-2.82.4-4.22.02-.18.09-.36.17-.53.6-1.18.77-2.43.56-3.86-1.56-1.53-2.2-3.6-1.88-5.82.24-1.71 1.08-3.28 2.13-4.69.51-.68.99-1.53 1.81-1.77.72-.21.77-.98 1.47-1.21.56-.19.92-.94 1.44-1.34.54-.4 1.22-.62 1.76-1.02.53-.39.88-1.04 1.44-1.37 1.11-.65 2.04-1.58 3.47-1.77 1-.13 1.87-1.08 2.77-.74 1.06-.83 1.98-1.44 2.78-2.19 1.32-1.23 2.48-2.63 3.36-4.19.58-1.03 1.71-1.73 1.87-3.01 1.41-1.81 2.84-3.61 4.22-5.44.53-.69.93-1.48 1.42-2.2 1.04-1.51 1.92-3.12 3.21-4.47.9-.94 1.62-2.1 2.27-3.24.45-.78.93-1.5 1.55-2.15 1.17-1.22 2.28-2.5 3.39-3.78.24-.28.41-.62.57-.96.49-1.05 1.18-1.94 1.97-2.78 1.68-1.8 3.4-3.56 4.79-5.59.56-.81.97-1.72 1.49-2.66 1.41.02 1.73-1.38 2.56-2.18.21-.2.33-.52.43-.81.2-.64 1.15-.39 1.31-1.23.1-.56.74-1.01 1.07-1.54.43-.7 1.21-.98 1.75-1.61.49-.58.9-1.32 1.6-1.72.48-.27.99-.5 1.5-.71.34-.14.71-.21 1.08-.31.08-.21.16-.44.25-.68h.84c.46-1.61 2.33-1.54 3.24-2.74.46-.61 1.23-1.22 2.23-1.31.46-.04.52-.81 1.13-1.01.59-.2.98-.22 1.29.14 2.94-1.6 5.68-3.63 8.84-3.1 1.61-.63 2.78-1.22 4.02-1.54 1.3-.33 2.66-.38 4.13-.57.52-.27 1.18-.61 2.04-1.05 1.33.18 2.76-.32 4.22-.78 1.41-.45 2.9-.66 4.6-1.03.01 0 .31.13.92.37-.28-.47-.38-.64-.56-.96 1.07-.02 2.1.06 2.95-.68.24-.21.75-.15 1.13-.12.92.07 1.83-.02 2.61-.44.74-.39 1.48-.37 2.24-.37 2.39 0 4.79.01 7.18-.02.48 0 .96-.18 1.68-.34.16.15.49.45.79.74.49-.13.97-.35 1.45-.37 1.39-.05 2.79-.06 4.19 0 .81.04 1.62.28 2.43.37.82.1 1.61.06 2.45.33.96.31 2.11.13 3.17.06 1.01-.07 2 .1 3.07-.28 1.06-.38 2.36-.1 3.55-.11.57.69 1.34.37 2.03.39 2.06.04 4.12.04 6.18 0 1.55-.02 2.95.45 4.4.94 1.17.4 2.43.71 3.72.67 1.08-.03 2.21-.21 3.12.65.05.05.1.14.14.13 2.05-.43 3.13 1.44 5.14 1.94.3-.07 1.09.39 1.59-.26.32.11.6.3.89.31 1.11.02 2.04.4 2.99.99.76.47 1.61.84 2.54 1.09 1.09.29 2.11 1.07 3.03 1.79.93.74 1.7 1.69 2.56 2.51.46.44 1.03.77 1.48 1.22.39.39.64.92 1.05 1.28.26.23.68.27.88.35.65.73 1.24 1.4 1.94 2.19.02.17-.08.6.1.78 1.06 1.08 1.12 2.61 1.81 3.85.09.16.13.36.12.54-.02 1.54.29 3.01.77 4.47.18.54.07 1.19.02 1.78-.04.49.67.98.01 1.47.2 1.13-.46 2.37.4 3.43-.14.89.22 1.79-.24 2.69-.24.48-.31 1.22-.12 1.71.55 1.4.26 2.83.37 4.24.07.88-.32 1.83.38 2.64.1.11.09.44 0 .58-.76 1.15-.3 2.42-.37 3.63-.09 1.53.24 3.11-.98 4.45.47.76.89 1.45 1.37 2.23-.54.69-.46 1.43-.05 2.35.87 1.93 1.7 3.88 1.69 6.1 0 .87.45 1.8.89 2.6 1.28 2.32 1.99 4.75 1.85 7.42-.07 1.29.68 2.5.4 3.83-.02.1.05.26.13.34.86.91.65 2.04.66 3.12.01 1.13-.1 2.27.02 3.39.24 2.17-.34 4.21-.96 6.2-.33 1.06-.37 2.1-.21 3.07.44 2.77.52 2.9-.2 5-.1.29-.33.71-.22.88.65.97.4 2.04.33 3.04-.07.95.13 1.89.51 2.6.58 1.08.67 2.26 1.13 3.33.48 1.1.45 2.32.8 3.46.52 1.71 1 3.43.8 5.25-.03.32.04.74-.14.93-.84.93-.69 2.05-.64 3.13.03.67-.32 1.24-.38 1.83-.15 1.4.44 2.69.89 3.98.64.3 1.28.46 1.73.85.5.43 1.03.36 1.49.26 3.51-.73 5.68-.53 8.49.89.88.44 1.64 1.14 2.72 1.16.33 0 .67.31.96.54 2.01 1.58 3.37 3.66 4.34 5.98.36.85.34 1.86.48 2.79.09.56-.24 1.2.39 1.64.06.04.05.26 0 .38-.89 2.77-.1 5.61-.48 8.53-.56.43-1.23.92-1.89 1.43-.61.47-1.32.85-1.78 1.43-.51.65-1.89.03-1.83 1.41.93.23 1.88.46 2.85.71q-.58.97-1.5 1.18c-.6.67-1.14 1.28-1.69 1.88-.61.66-1.67.08-2.26.8-.69-.7-1.68.73-2.4-.51-.39 1.33-1.76.51-2.39 1.3-.42-.38-.74-.98-1.6-.75-.29.36-.66.82-1.14 1.41-.16-.47-.24-.69-.33-.96-1.1-.26-1.98.01-2.64 1.19v-1.12c-2.16.61-4.37-.14-6.66.56-.33-.13-.87-.73-1.48-.02-.35-.45-.88.2-1.28-.25-.49-.54-1.09.74-1.63-.03-.5.64-.98-.27-1.67.09-.08.16-.26.53-.49 1-.36-.62-.52-.9-.8-1.37-.33.54-.54.89-.76 1.27.09.1.21.24.4.46-.26.05-.48.1-.79.16v-1.24c-.36.18-.58.36-.83.4-.32.06-.66.01-1.01.01-.27-.26-.55-.52-.83-.78-.78.82-1.53.27-2.4-.07-.17.19-.37.42-.57.64.14.17.25.31.37.45-.16.06-.27.11-.56.22-.1-.25-.21-.5-.32-.78h-1.34c.52.24.78.37 1.04.49v.42c-.72.71-1.27-.36-1.93-.19-.6.16-1.19.34-1.81.52-.18-.38-.31-.65-.44-.94-.83.13-1.62.99-2.36.08-.25.2-.45.36-.64.51.15.18.27.32.43.51-.24.06-.42.1-.66.16-.09-.25-.16-.48-.24-.71-.12-.04-.23-.13-.35-.12-.62.03-1.29-.18-1.82.36-.57-.72-1.12-.31-1.68.02-.08.05-.32-.01-.35-.08-.27-.6-.56.16-.86-.03-.85-.53-1.69-.34-2.51.12-.27-.15-.54-.3-.92-.52-.19.38-.37.75-.47.96-.86-.33-1.42-.55-1.93-.75-.58.22-1.16.43-1.8.67-.31-.12-.71-.28-1.21-.47-.38.33-.76.65-1.36 1.17-.2-.43-.37-.8-.53-1.17-.92-.37-1.62.56-2.46.18-.57-.25-1.45.28-2.2.3-.82.03-1.69.22-2.6-.34l-.8.8c-.15-.08-.36-.2-.61-.34-.14.08-.34.19-.55.31-.9-.09-1.61-1.5-2.7-.4-.46-.16-.93-.31-1.52-.51-.22.34-.44.67-.59.91-1.14-.58-2.09-.62-3.11-.02-.21-.33-.45-.7-.69-1.09-.03.01-.12.07-.21.1-2.4.77-4.93.55-7.6.68-.43-.64-1.32.26-2.11.03-.81-.24-1.7-.21-2.61-.3l-.12.56c-.7-.03-1.45.22-2.19-.28-.72.63-1.69.13-2.55.32-.88.2-1.66-.65-2.41-.36-.9.34-1.64-.19-2.48-.08-.8.1-1.68.2-2.59-.24-.26.15-.69.4-1.03.6-.74-.12-1.42-.28-2.1-.31-.49-.02-1.07-.24-1.47.3-.05.07-.24.09-.36.07-.68-.12-1.53-.05-1.99-.44-.7-.6-1.29.62-1.85-.09-.41-.52-1.04-.06-1.47-.28-.44-.22-.67.82-1.14.12-.05-.08-.63.29-.97.29-.57 0-1.16-.06-1.69-.24-.85-.28-1.62-.18-2.15.13-.81-.1-1.57-.43-2-.19-1.32.73-2.63.31-3.81 0-.85-.23-1.33.62-1.98.3-.6-.29-1.24-.63-1.81-.31-1.09.61-2.07.35-3.19-.11-.19.3-.41.64-.61.96-1.35-.45-2.7-.28-3.66-1.59-.19.44-.28.64-.44 1.02-1.5.39-3.23-1.26-4.83.21-.13-.38-.21-.61-.33-.98-.95.18-1.93-.27-2.96.37-.51.32-1.41.04-1.98-.12-1.51-.41-2.96-.2-4.43-.11-.1 0-.19.18-.28.27-.14-.13-.29-.27-.5-.46-.47.24-.97.49-1.44.73-1.35-.29-2.73-.59-4.16-.9-.02.06-.1.3-.19.56-.95-.71-2-.05-3.03-.14-.02.1-.07.29-.11.47l-.14.14c-.87-.97-2.18.14-3.11-.66-.16-.14-.59-.21-.72-.1-.63.5-1.39.22-2.04.41-.62.18-1.12-.67-1.69-.07-1.08-.7-2.28-.21-3.41-.37-.36-.05-.71-.18-1.12-.29l-.73.73c-.38-.09-.85-.21-1.46-.36-.83.61-2.02.06-3.04.37-1.08.33-2.05-1.14-3.1-.06-1.31-.57-2.66-.54-4.06-.11l-.68-.68c-.63 0-1.29-.03-1.95 0-.61.04-1.22.16-2.11.28.03.02-.16-.14-.42-.35-.19.09-.41.19-.66.31-.41-.08-1.04-.4-1.31-.21-1.14.8-2.02 0-2.98-.3-.12-.04-.23-.14-.34-.13-.66.06-1.38.36-1.94.17-.67-.22-1.27-.15-1.9-.12-.13 0-.26.2-.38.3l-.72-.72c-1.36-.19-2.75.2-4.17-.29-.34.37-.75.31-1.39-.03-1.1-.59-2.28-1.09-3.61-.9-.25-.22-.49-.43-.88-.76.43-.35.74-.8 1.07-.82.62-.05.96-.29 1.19-.9-1.08-.51-2.17-1.03-3.1-1.47-.15-.96-.27-1.7-.42-2.65.3-.39.6-1.01-.14-1.66.5-1.06.78-2.15.17-3.07.35-2.65.31-5.21 1.35-7.91zm96.01-68.56c-.52 2.57.3 4.87.26 7.21-.02 1.41.34 2.74.71 4.09.26.97.45 1.99.45 2.99 0 .75.24 1.41.6 1.95.2.29 0 .95.75.98.21 0 .35.83.61 1.22.13.2.44.28.32.21.21 2.47.36 4.54.57 6.61.05.48.29.95.38 1.43.09.51-.04 1.08.14 1.54 1.1 2.81.98 5.83 1.45 8.16.94 2.34 1.86 4.12 2.34 6 .28 1.07.82 1.93 1.26 3.11v2.48c-.25.43-.64.8-.66 1.19-.08 1.24-.03 2.48-.03 3.33-.56 1.08-.93 1.79-1.3 2.51.18.39.28.84.56 1.15.28.32.75.45 1.07.73.35.3.63.68.93 1.02l.12-.24c1.77.54 3.54 1.08 5.78 1.77h2.79c1.52-.74 2.8-1.88 4.55-1.58 1.22-1.52 2.36-2.99 3.56-4.4.99-1.16 1.32-2.67 2.18-3.89-.19-1.24.79-1.94 1.33-2.84.16-.26.29-.55.41-.78 1.02-.2 2.04-.33 2.34-1.57.97-.23 1.11-1.28 1.78-1.85.67-.56 1.31-1.18 1.79-2.01.43-.74.88-1.51 1.34-2.25 1.69-2.73 3.29-5.51 4.24-8.61.47-1.53 1.5-2.84 1.7-4.48.07-.6.39-1.17.54-1.76.48-1.98 1.5-3.78 1.87-5.81.3-1.63.34-3.22.03-4.81-.2-1.02-.65-1.98-1.01-2.97-.35-.98-.87-1.92-1.15-2.91-.3-1.04-1.28-1.68-1.39-2.84-.04-.46-.55-1.05-.99-1.26-.77-.36-.96-1.25-1.52-1.57-.78-.44-1.32-1.06-1.89-1.65-.74-.78-1.35-1.68-1.93-2.42-1.33.04-2.42-.09-3.47.4-2.11 1-4.41.98-6.5 1.25-.35.15-.58.25-.8.35-.62.27-1.26.49-1.86.81-.6.32-1.15.74-1.75 1.08-.79.46-1.46-.32-2.18-.26-1.15.09-2.1-.35-2.98-.9-.9.23-1.71 1-2.55.09-.09-.1-.39.02-.58-.02-1.87-.34-3.69-1.11-5.65-.8-.05 0-.14-.02-.17-.06-.46-.6-1.11-.23-1.66-.34-.61-.12-1.22-.29-1.83-.39-1.93-.33-3.38.75-4.9 1.59zm78.1 52.79c1.08-.82 2.08-1.58 3.1-2.36.32-.67.56-1.47 1.03-2.09.69-.91.93-1.87 1.05-2.97.12-1.21.51-2.39.37-3.63.83-1.22.47-2.47-.02-3.65-.71-1.7-.88-3.45-.78-5.26.06-1.1-.17-2.12-.75-3.09-.3-.52-.4-1.16-.57-1.68-.64-.9-1.5-1.46-2.05-2.41-.47-.8-1.77-.99-2-2.1-1.03-.21-1.64-.98-2.4-1.55-.8-.61-1.2-1.58-2.25-2.15-.73.14-1.6.31-2.58.51-.2-.27-.43-.58-.61-.82-.81 0-1.49-.08-2.14.02-1.24.18-2.47.53-3.39 1.41-.53.51-1.21.82-1.64 1.46-.44.64-1.04 1.17-1.63 1.82.09.48.18 1.02.29 1.62-.37.36-.39 1.09-1.25 1.37-.85.28-1.57 1.09-2.24 1.77-1.87 1.89-3.97 3.58-5.24 6-.43.82-.96 1.61-1.49 2.37-.49.71-1.12 1.33-1.44 2.16-.47 1.21-1.1 2.34-1.72 3.48-1.15 2.14-1.67 4.51-2.16 6.8-.58.43-1.03.96-1.6 1.14-.76.24-1.09.89-1.66 1.29-1.38.98-2.14 2.75-1.74 4.21.14.53.44 1.01.68 1.57 2.63 1.41 5.39 1.15 8.09.74.47.1 1.07.4 1.28.22.66-.54 1.37-.29 2.06-.35.4-.03.81.06 1.19-.02 1.81-.37 1.8-.21 3.11-.16.81.03 1.64.47 2.41.15 1.64-.69 3.42-.67 5.1-1.16 1.42-.42 2.88-.7 4.25-1.29.73-.32 1.5-.57 2.54-.96.83-.69 1.93-1.6 2.98-2.47h1.01l-.87 1.07h1.54c.34-.49.65-.97.98-1.43.06-.08.22-.09.4-.15.17.13.37.27.74.55zm-108.26-9.41c.12-.47.15-.8.29-1.07.73-1.43 1.29-2.92 1.82-4.43.67-1.93 1.4-3.82 1.74-5.87.29-1.7.42-4.53-.35-6.02-.82-1.59-1.13-3.22-1.01-4.97.04-.66.03-1.33 0-1.99-.05-.93.07-1.79.8-2.46-.13-.14-.25-.28-.2-.22.08-.64.13-1.09.21-1.75-.29.27-.37.42-.48.43-1.12.16-1.94.78-2.77 1.54-1.32 1.21-2.69 2.39-4.2 3.33-.63.39-1.3.83-1.56 1.37-.4.81-1.11.86-1.7 1.21-.09.81-.82 1.14-1.27 1.66-.64.74-1.45 1.37-1.95 2.19-1.17 1.9-2.51 3.65-3.96 5.34-1 1.16-1.93 2.37-2.85 3.5 0 1.31.03 2.5 0 3.69-.04 1.22.21 2.47-.23 3.74.44.32.44 1.12.17 1.47-.45.57-.35 1.13-.31 1.68.09 1.24-.1 2.46-.44 3.62-.54 1.82-1.55 3.23-3.57 3.74-.73.18-1.26.41-2.13.13-1.71-.55-2.6-1.74-3.47-3.11-.49-.77-.94-1.51-.79-2.31-.96-1.24-1.84-2.38-2.65-3.43-.44.35-.87.71-1.33 1.08.25 2.64-1.22 4.93-1.65 7.5-1.34 1.16-2.43 2.51-2.58 4.55.67 1.33 2.08 2.25 3.16 3.47.84.04 1.2 1.3 2.23.87 1.07.72 2.28.26 3.59.44.18-.26.41-.58.68-.98 1.44.18 2.84.36 4.24.53.88.1 1.79-.19 2.65.36.27.17.88-.03 1.27-.21 1.19-.57 2.43-1.02 3.34-2.08.34-.4.91-.7 1.43-.84.78-.21 1.52-.66 2.26-.75.78-.1 1.27-.46 1.59-.98.92-1.52 2.04-2.89 3.08-4.31.52-.7.88-1.58 1.1-2.53.3-1.3.63-2.8 1.92-3.56 1.62-.96 2.65-2.5 3.91-3.55zm29.15-9.34c-.93-1.01-.92-2.62-1.92-3.69.06-1.28-.88-2.14-1.58-2.9-1.2-1.29-1.42-2.91-1.94-4.4-.23-.66-.1-1.61-.51-2.17-.54-.74 0-1.71-.73-2.3.28-1.01-1.13-1.43-.84-2.44-.75-.56-.9-1.5-1.43-2.19-.38-.5-.81-1.11-1.64-.68-.79 1.85-1.61 3.7-2.37 5.58-.37.91-.59 1.88-.93 2.8-.5 1.34-1.12 2.61-1.23 4.09-.06.9-.49 1.78-.76 2.66-.26.82-.54 1.64-.79 2.46-.15.47-.31.95-.39 1.43-.09.51-.01 1.05-.14 1.54-.55 2.01-1.05 4.02-1.09 6.14-.03 1.7.07 3.39.48 5 .23.89.15 1.8.41 2.62.15.48.51 1.04.3 1.43-.62 1.13-.22 2.3-.37 3.31-.61 1.28-1.55 2.33-1.13 3.8.28.42.5.9.86 1.23 1.28 1.21 2.51 2.49 3.94 3.49 1.01.7 2.1 1.29 3.63.67 1.79-.73 3.09-1.76 4.19-3.33 2.19-3.1 1.9-3.87 2.49-6.75.32-1.54.75-3.08 2-4.14 1.51-1.28 1.86-2.97 1.96-4.77.08-1.39.07-2.79 0-4.18-.07-1.34-.28-2.68-.46-4.29z"/></svg>