<svg xmlns="http://www.w3.org/2000/svg" width="80" height="80" viewBox="0 0 283.46 283.46"><path d="M199.86 248.91c-1.07-.12-2.22-.53-3.25-.31-2.7.57-5.01.44-6.57-2.21-.12-.2-.27-.47-.46-.52-5.18-1.41-3.96-6.22-5.55-9.79-.07.02-.45.12-.6.16-.41-1.21-1-2.33-1.14-3.51-.25-2.13-.2-4.29-.35-6.43-.08-1.15 0-2.49-.55-3.41-1.93-3.26-1.42-6.74-1.29-10.21.03-.7.02-1.43-.12-2.12-1.75-8.23-3.53-16.45-5.31-24.71-3.76 1.91-7.38 3.74-11.45 5.8.42 4.26.86 8.88 1.34 13.49.34 3.2.68 12.62.88 15.82.09 1.51.58 2.18 1.99 2.71 2.99 1.13 5.97 2.38 8.78 3.9 1.06.57 10.65 6.78 11.28 7.93.86 1.58 2.14 9.24 3.11 11.46h-8.18c-1.41 1.81-2.88 3.69-4.71 6.03.45 1.45 1.03 3.64 1.83 5.75.31.82.99 1.78 1.74 2.09 4.56 1.88-3.18-10.72-.66-7.11.92 1.32.84 2.35-1.21 3.05-3.34 1.13-6.6 1.79-10.12 1.28-1.06-.15-2.2.25-3.76.46-.13-.08-.74-.74-1.37-.77-4.17-.2-4.66-2.01-5.4-5.11-.9-3.75.61 3.98-.14.19-.3-1.51-.62-3.38-1.64-4.3-1.3-1.17-3.26-1.95-5.02-2.19-4.47-.6-8.99-.82-13.5-1.15-.28-.02-.58.34-.89.48-.66.3-1.51 1-1.98.8-2.16-.91-4.23-.23-6.3.09-1.99.31-3.93.93-5.99 1.76 6.18-.22 10.46 2.78 13.58 7.17-.54 1.05-.91 1.87-1.36 2.64-.31.52-.64 1.15-1.13 1.41-4.1 2.11-10.37-8.68-14.69-10.34-8.67-3.33-24.89 3.64-34.06 1.73-2.37-.49-4.83-1.6-6.69-3.11-1.23-1-5.92.9-6.6-.78-.18-.44-.28-1.12-.6-1.25-2.46-.99-4.9-2.23-7.47-2.71-3.56-.66-6.41-2.2-7.63-5.55-1.29-3.54.77-6.32 2.98-8.95 2.62-3.12 6.53-3.08 9.93-4.18 1.59-.52 1.75-1.05 1.91-2.49.39-3.67 13.39-22.17 13.92-25.83.38-2.65.4-5.37.97-7.97.55-2.5 1.41-4.98 2.46-7.32 6.55-14.65 14.8-28.39 22.9-42.21 3.22-5.5 6.06-11.29 9.82-16.39 3.86-5.23 8.35-10.08 13.1-14.53 3.01-2.81 3.42-6.43 4.73-9.77 1.03-2.61.79-5.77 3.77-7.37.34-.18.88-.57.84-.75-.52-2.29 1.63-2.21 2.67-3.09 1.14-.96 2.32-1.88 3.49-2.8.7-.55 1.44-1.54 2.13-1.52 2.26.08 3.31-1.2 4.09-2.95 2.39-5.41 4.69-10.85 7.13-16.24.9-2 2.07-3.88 3.15-5.78.56-.99.62-1.68.06-2.92-.89-1.98-1.19-4.31-1.36-6.52-.32-4.13-.3-8.28-.56-12.41-.45-7.12-.58-14.21 1.97-21.03.79-2.13 1.51-4.67 4.16-4.99 2.62-.31 4.13 1.9 5.29 3.79 2.18 3.55 4.11 7.26 5.94 11.01 1.4 2.87 2.88 5.51 6.48 6.51 2.12-5.35 4.4-10.72 6.35-16.21.63-1.79.33-3.9.57-5.85.08-.62.51-1.19.78-1.79.45.46 1.15.85 1.31 1.39 1.92 6.5 3.81 13.01 5.57 19.55.24.89-.09 2.03-.4 2.97-.8 2.47-.31 3.17 1.91 4.48 3.38 1.98 6.64 4.2 9.76 6.56.85.64 1.43 2.16 1.43 3.27 0 1.67.68 2.32 2.12 2.54 2.81.42 5.69.54 8.41 1.27 3.62.97 7.2 2.19 10.62 3.71 2.47 1.1 2.43 2.71.91 5.32-.87 1.49-1.08 3.35-1.87 4.91-1.8 3.55-4.74 5.14-8.76 4.63-.54-.07-1.13-.05-1.64.1-2.59.78-5.17 1.62-7.93 2.49 1.77 2.75 3.06 6.27 6.93 7.45.76.23 1.77.37 2.43.05 1.9-.9 2.99-.04 3.96 1.4.22.33.41.68.59 1.03 1.84 3.56.85 5.08-3.34 5.12-1.79 3.9-7.16 5.51-11.89 3.66-2.1-.82-4.29-1.4-6.06-1.97-4.3 10.5-6.7 21.08-4.55 32.31-.43.05-.85.09-1.01.11-.74 5.65 1.13 11.23-.73 16.82-.58 1.73.37 3.96-.17 5.73-1.14 3.74-2.21 7.52-4.69 10.79-2.26 2.98-4.42 6.21-5.76 9.66-1.24 3.2-1.4 6.82-1.93 10.28-2.44 15.9-1.45 31.83.11 47.7.43 4.39 1.82 8.82 3.57 12.88.76 1.75 3.41 3.04 5.47 3.8 4.54 1.69 7.36 4.95 9.46 9.05.24.46.35 1.4.11 1.6-.4.32-1.17.35-1.73.23-3.08-.66-5.78.5-8.7 1.03z"/><path d="M228.77 254.59c-.48-.44-.23-1.09-.3-1.64-.11-.94-.1-1.94-.37-2.79-.75-2.31-1.79-4.39-3.33-5.98-.22-.23-.49-.53-.74-.54-.83-.02-1.41-.72-2.09-1.16-2.16-1.42-3.82-1.62-6.51-.89-.35.1-.76.17-1.14-.26-.31-.35-.75-.52-1.2-.78-2.45.26-4.8-.13-7.29-.37-2.14.3-4.31.54-6.48.66-2.09.77-4.13 1.9-6.3 2.45-5.94 1.51-11.95 1.02-17.87-.26-1.82.33-3.68.46-5.45-.63-12.34 3.66-25.17 1.7-37.93.94-.71 1.03-1.54 1.78-2.6 2.34-1.17.63-2.01.04-2.78-.67-.63-.57-1.2-1.24-1.76-1.93-6.7-.04-13.36.61-19.89 2.95-1.19.43-2.16-.03-2.82-.9-.5.39-1.03.69-1.55 1.02-.29.18-.76.38-.97.21-.66-.55-1.36-.26-2.03-.36-.34-.05-.68-.11-1.02-.16-4.02 1.82-4.99-3.91-9.15-3.66-3.55.21-11.02 6.42-14.52 5.2-1.4.7-2.76 1.17-4.11 1.02-1.73 1.38-3.29 2.6-4.38 4.31-.8 2.7-.77 5.27-1.04 7.91.47.92.26 2.01-.13 3.07.57.64.34 1.26.11 1.66.12.95.2 1.69.32 2.65.72.44 1.55.96 2.38 1.47-.18.61-.44.85-.91.9-.26.03-.49.47-.82.82.29.33.48.54.67.76 1.02-.2 1.92.31 2.77.9.48.34.8.4 1.06.03 1.09.48 2.16.1 3.2.29l.56.72c.1-.1.19-.3.3-.3.48-.03.94-.11 1.45.12.43.19.99-.11 1.49-.17.08-.01.17.1.26.13.74.3 1.41 1.1 2.29.3.21-.19.69.13 1.01.21.19-.11.36-.22.5-.31.2.21.34.37.32.35.68-.12 1.15-.24 1.61-.28.5-.04 1.01 0 1.5 0l.52.68c1.08-.43 2.11-.46 3.12.11.8-1.08 1.55.38 2.38.05.78-.31 1.69.24 2.33-.37.47.15.82.26 1.12.36.27-.35.45-.59.56-.73.32.11.59.23.86.29.87.16 1.79-.33 2.61.37.44-.59.82.26 1.3.07.5-.19 1.07.08 1.56-.41.1-.11.43-.04.55.1.71.79 1.72-.31 2.38.66l.11-.14c.03-.18.06-.36.08-.47.79.09 1.59-.57 2.32.14.07-.26.13-.49.15-.56 1.1.31 2.15.61 3.19.9l1.1-.73c.16.19.27.33.38.46.07-.09.14-.26.21-.27 1.13-.09 2.24-.3 3.4.11.43.15 1.12.44 1.51.12.79-.63 1.54-.18 2.27-.37.1.37.16.6.26.98 1.23-1.47 2.55.18 3.7-.21.13-.38.19-.59.34-1.02.74 1.31 1.78 1.14 2.81 1.59.15-.32.32-.65.47-.96.86.46 1.61.72 2.45.11.43-.32.93.02 1.39.31.5.31.86-.53 1.51-.3.91.32 1.91.73 2.92 0 .34-.24.92.1 1.54.19.41-.32 1-.41 1.65-.13.41.18.86.23 1.3.24.26 0 .7-.37.74-.29.36.7.54-.34.88-.12.33.22.82-.24 1.13.28.43.72.88-.51 1.42.09.35.39 1 .32 1.52.44.09.02.23 0 .28-.07.31-.55.75-.33 1.13-.3.52.03 1.04.19 1.61.31.26-.2.59-.45.79-.6.69.44 1.37.34 1.99.24.64-.11 1.22.43 1.9.08.58-.29 1.17.56 1.85.36.66-.19 1.41.31 1.96-.32.56.51 1.14.26 1.68.28.05-.33.08-.51.09-.56.7.09 1.38.06 2 .3.6.23 1.28-.68 1.61-.03 2.05-.13 3.99.09 5.82-.68.07-.03.14-.09.16-.1l.53 1.09c.78-.6 1.51-.56 2.39.02.12-.24.29-.57.46-.91.45.2.81.36 1.17.51.83-1.11 1.38.3 2.07.4l.42-.31c.19.14.36.26.47.34.27-.35.48-.63.61-.8.7.56 1.37.37 2 .34.57-.03 1.25-.56 1.68-.3.65.37 1.18-.55 1.88-.18l.41 1.17c.46-.52.75-.84 1.04-1.17.39.2.69.35.93.47.5-.24.94-.45 1.38-.67.39.2.82.41 1.48.75.08-.21.22-.57.36-.96.3.22.5.37.71.52.63-.46 1.27-.66 1.92-.12.23.19.46-.56.66.03.02.07.21.12.27.08.43-.33.85-.75 1.29-.02.4-.54.91-.33 1.39-.36.09 0 .18.08.26.12.06.23.12.46.18.71.18-.06.32-.1.5-.16-.13-.19-.22-.33-.33-.51.15-.15.3-.31.49-.51.57.9 1.18.05 1.81-.08.1.29.2.56.34.94.47-.18.92-.36 1.38-.52.51-.17.93.9 1.48.19v-.42c-.2-.12-.4-.25-.79-.49h1.03l.25.78c.22-.11.3-.16.43-.22-.09-.15-.17-.28-.28-.45.15-.22.3-.45.43-.64.67.33 1.24.89 1.84.07.21.26.43.52.64.78.26 0 .52.04.77-.01.19-.04.35-.22.63-.4v1.24c.23-.06.4-.1.6-.16-.15-.22-.24-.36-.31-.46.18-.38.34-.73.59-1.27.21.47.34.75.61 1.37.18-.48.32-.84.38-1 .53-.36.9.55 1.28-.09.41.77.88-.51 1.25.03.31.45.72-.2.98.25.47-.71.88-.11 1.14.02 1.76-.7 3.45.06 5.11-.56v1.12c.5-1.18 1.18-1.45 2.02-1.19.07.27.13.49.25.96.37-.59.65-1.05.87-1.41.66-.22.9.37 1.23.75.48-.79 1.53.02 1.83-1.3.55 1.23 1.31-.2 1.84.51.46-.72 1.27-.13 1.73-.8.42-.6.84-1.21 1.3-1.88q.7-.21 1.15-1.18c-.75-.24-1.48-.48-2.19-.71-.05-1.38 1.02-.75 1.41-1.41.35-.59.9-.97 1.36-1.43.5-.5 1.01-1 1.45-1.43.29-2.92-.32-5.77.37-8.53.03-.12.04-.34 0-.38z"/></svg>